<?xml version="1.0" encoding="utf-8"?>
<!-- Generator: Adobe Illustrator 27.5.0, SVG Export Plug-In . SVG Version: 6.00 Build 0)  -->
<svg version="1.1" xmlns="http://www.w3.org/2000/svg" xmlns:xlink="http://www.w3.org/1999/xlink" x="0px" y="0px"
	 viewBox="0 0 500 500" style="enable-background:new 0 0 500 500;" xml:space="preserve">
<g id="BACKGROUND">
</g>
<g id="OBJECTS">
	<g id="XMLID_293_">
		<path id="XMLID_56_" style="fill:#CECECE;" d="M203.629,222.917c0,1.943-36.19,3.518-80.833,3.518s-80.833-1.575-80.833-3.518
			s36.19-3.518,80.833-3.518S203.629,220.975,203.629,222.917z"/>
		<path id="XMLID_55_" style="fill:#DB879E;" d="M176.004,90.858c37.625,14.577,56.079,18.087,57.292,49.577
			c1.333,34.62-31.333,43-76,43.333c-44.667,0.333-82-2.393-99-20.53S18.134,99.598,48.215,73.35
			C78.296,47.102,138.379,76.281,176.004,90.858z"/>
		<path id="XMLID_79_" style="fill:#F3D7BE;" d="M121.902,212.105h-6.84c0,0,0,0-0.79-2.82c-0.48-1.75-1.27-4.59-2.55-9.2
			c-3.34-12.01-4-22.69-4-22.69l-4.59-18.07l-2.86-11.28l13.76-4.06l0.78-0.23l0.17,2.15l0.66,8.17l0.06,0.77l1.8,22.55
			L121.902,212.105z"/>
		<polygon id="XMLID_62_" style="fill:#E0A77C;" points="115.642,154.075 103.132,159.325 100.272,148.045 114.032,143.985 
			114.982,145.905 		"/>
		<path id="XMLID_76_" style="fill:#F3D7BE;" d="M93.802,148.975l-0.5,0.92l-3.66,6.77v0.01l-0.25,0.47l-8.84,16.36l-27.82,31.05
			l-1.99-4.54l-0.32-0.74c4.63-16.02,22.46-28.9,22.46-28.9l0.82-15.18v-0.09l0.1-1.83l0.41-7.72l19.27,3.36L93.802,148.975z"/>
		<path id="XMLID_61_" style="fill:#E0A77C;" d="M93.482,148.915l-0.18,0.98l-3.66,6.77v0.01l-0.25,0.47
			c-0.46-0.13-1.02-0.28-1.68-0.46c-3.18-0.87-10.72-1.33-14.01-1.49v-0.09l0.1-1.83l0.41-7.72L93.482,148.915z"/>
		<path id="XMLID_82_" style="fill:#F3D7BE;" d="M144.852,105.135c-1.71,0-2.22-0.59-2.22-0.59s-0.21,0.97-1.77,0.91
			c-1.55-0.05-1.81-0.75-1.81-0.75s-0.67,0.75-1.45,0.54c-0.78-0.22-1.14-1.02-1.14-1.02s-0.31,0.43-1.09,0.21
			c-0.78-0.21-2.12-2.75-2.12-2.75s-1.38-0.68-3.64-1.8c-0.02-0.01-0.04-0.02-0.06-0.02c-4.34-2.14-11.88-5.87-19.08-9.46
			c-7.15-3.57-11.77-6.75-14.86-9.6c-1.67-1.52-2.89-2.96-3.84-4.3c-6.44-9.17,0.84-12.25,2.73-9.82
			c6.26,8.03,20.35,18.27,20.35,18.27s11.71,6.5,20.52,11.35c0,0,2.07-1.19,3.84-1.13c1.76,0.05,4.04,0.43,3.67,1.13
			c-0.36,0.7-2.9,1.02-3.16,1.72c-0.26,0.7,4.46,5.33,6.48,5.17C148.222,103.035,146.563,105.135,144.852,105.135z"/>
		<path id="XMLID_77_" style="fill:#4E70B4;" d="M120.782,152.535c-4.26,1.29-14.79,3.09-25.3,1.87c-9-1.04-15.79,3.09-24.35-1.53
			c-1.44-0.78-2.92-1.81-4.48-3.15c0,0,4.9-7.67,7.19-22.95c2.6-17.32,10.86-19.93,10.86-19.93s-9.62-14.73-11.76-24.58
			c0,0-0.01,0-0.01-0.01c-0.37-1.71-0.52-3.27-0.35-4.58c1.19-9.26,8.4-10.33,8.4-10.33s8.95-0.55,13.14,2.66
			c0.19,0.14,0.36,0.29,0.53,0.45c2.68,2.55,10.18,6.34,8.06,14.48c-3.04,11.69,3.91,20.32,3.91,20.32l0.76,2.82
			c0.01,0.01,0.01,0.02,0.01,0.02l8.34,30.9L120.782,152.535z"/>
		<path id="XMLID_68_" style="fill:#38598E;" d="M81.772,94.785l4.38,12.09c0,0-6.88,7.25-8.5,16.87
			c-1.63,9.63-2.31,20.38-4.13,24.57c-1.81,4.18-2.33,4.58-2.33,4.58l-0.06-0.02c-1.44-0.78-2.92-1.81-4.48-3.15
			c0,0,4.9-7.67,7.19-22.95c2.6-17.32,10.86-19.93,10.86-19.93s-9.62-14.73-11.76-24.58c3.1,3.08,17.89,17.3,31.25,21.83
			C104.192,104.095,87.402,99.635,81.772,94.785z"/>
		<polygon id="XMLID_13_" style="fill:#2E1439;" points="182.558,211.978 183.547,215.932 190.556,215.932 189.747,211.259 		"/>
		<path id="XMLID_71_" style="fill:#7A9CD3;" d="M107.382,108.075c-0.27-0.51-4.53-8.74-6.04-13.74c-1.57-5.17,0.62-9.96,0-14.02
			c-0.63-4.07-7.62-9.5-7.62-9.5l0.4-0.81c0.19,0.14,0.36,0.29,0.53,0.45c2.68,2.55,10.18,6.34,8.06,14.48
			c-3.04,11.69,3.91,20.32,3.91,20.32L107.382,108.075z"/>
		<path id="XMLID_83_" style="fill:#F3D7BE;" d="M135.162,116.295c-1.97,0-2.56-0.66-2.56-0.66s-0.24,1.08-2.03,1.02
			c-1.78-0.06-2.08-0.84-2.08-0.84s-0.77,0.84-1.67,0.6c-0.89-0.24-1.3-1.13-1.3-1.13s-0.36,0.47-1.25,0.24
			c-0.9-0.24-2.45-3.04-2.45-3.04s-2.4-1.14-6.12-2.9c-5.11-2.43-12.72-6.06-20.04-9.57c-12.64-6.08-18.39-11.14-21.48-15.37
			c-2.86-3.92-3.36-6.83-2.78-8.77c0,0,0,0,0-0.01c0.94-3.08,4.59-3.72,5.92-2.07c7.2,8.87,23.37,20.2,23.37,20.2
			s13.46,7.18,23.58,12.54c0,0,2.38-1.31,4.4-1.25c2.02,0.06,4.64,0.47,4.23,1.25c-0.42,0.77-3.34,1.13-3.63,1.9
			c-0.3,0.78,5.11,5.89,7.44,5.72C139.033,113.975,137.122,116.295,135.162,116.295z"/>
		<path id="XMLID_41_" style="fill:none;" d="M106.626,191.04"/>
		<path id="XMLID_53_" style="fill:#2E1439;" d="M51.052,197.335c0,0-7.025,5.498-7.335,6.179
			c-0.31,0.681,2.477,18.456,5.264,17.651c2.787-0.805,3.754-16.606,3.754-16.606L51.052,197.335z"/>
		<path id="XMLID_54_" style="fill:#2E1439;" d="M114.063,209.178c0,0,1.02,10.962,1.485,11.548
			c0.465,0.586,23.444,1.201,21.028-0.404c-2.718-1.806-14.673-11.039-14.673-11.039L114.063,209.178z"/>
		<g id="XMLID_88_">
			<g id="XMLID_86_">
				<path id="XMLID_35_" style="fill:#AF80B5;" d="M177.854,73.326c-1.453,5.294,1.392,5.069-8.738,12.721
					c-10.13,7.652-25.954,14.584-25.954,14.584l-3.391-5.363c8.02-6.567,21.067-13.928,21.067-13.928s1.277-10.104,7.441-13.51
					C171.019,66.316,180.859,62.377,177.854,73.326z"/>
				<path id="XMLID_37_" style="fill:#F2C39C;" d="M140.987,95.573c0,0-2.348-0.736-4.133-0.32
					c-1.785,0.415-4.035,1.254-3.527,1.866c0.508,0.612,3.161,0.407,3.563,1.04c0.403,0.633-3.487,6.146-5.579,6.404
					c-2.092,0.257,0.014,1.976,1.757,1.624c1.743-0.352,2.154-1.039,2.154-1.039s0.403,0.908,1.977,0.535
					c1.574-0.373,1.7-1.113,1.7-1.113s0.836,0.601,1.586,0.23c0.75-0.371,0.96-1.238,0.96-1.238s0.402,0.359,1.152-0.013
					s1.622-3.131,1.622-3.131L140.987,95.573z"/>
				<path id="XMLID_69_" style="fill:#AF80B5;" d="M184.065,115.129l-32.852-1.618c0,0,0.227-4.977,0.749-11.581
					c0.793-10.05,2.281-23.874,4.718-29.73c1.914-4.594,7.408-6.416,12.665-7.063c5.855-0.723,11.414,0.016,11.414,0.016
					s7.327,2.06,10.158,10.956C192.994,82.628,184.065,115.129,184.065,115.129z"/>
				<path id="XMLID_14_" style="fill:#F2C39C;" d="M136.475,104.345c0,0-2.381-1.31-4.405-1.25c-2.024,0.06-4.643,0.476-4.226,1.25
					c0.417,0.774,3.333,1.131,3.631,1.905c0.298,0.774-5.119,5.893-7.441,5.714c-2.321-0.179-0.417,2.143,1.548,2.143
					c1.964,0,2.559-0.655,2.559-0.655s0.238,1.071,2.024,1.012c1.786-0.06,2.083-0.833,2.083-0.833s0.774,0.833,1.667,0.595
					c0.893-0.238,1.31-1.131,1.31-1.131s0.357,0.476,1.25,0.238c0.893-0.238,2.44-3.036,2.44-3.036L136.475,104.345z"/>
				<path id="XMLID_67_" style="fill:#C59ACC;" d="M169.346,65.138l-0.35,0.749c0,0-7.214,1.914-10.25,6.163
					c-3.03,4.249-6.535,29.988-6.535,29.988l-0.248-0.108c0.793-10.05,2.281-23.874,4.718-29.73
					C158.595,67.607,164.089,65.785,169.346,65.138z"/>
				<path id="XMLID_63_" style="fill:#93659B;" d="M151.959,105.285l-0.261,0.177l-0.219,3.318c0,0,0.06-0.007,0.167-0.021
					l-0.429,4.751l6.836-3.898c0,0,10.257-4.897,15.186-7.728c17.68-10.154,17.99-23.275,17.99-23.275L151.959,105.285z"/>
				<path id="XMLID_73_" style="fill:#AF80B5;" d="M188.724,84.747c-2.728,5.413-6.071,9.36-18.709,15.431
					c-12.643,6.071-31.288,10.12-31.288,10.12l-2.502-6.551c0.022-0.011,0.048-0.027,0.07-0.038
					c10.12-5.338,25.783-10.438,25.783-10.438s12.218-15.825,20.041-20.564c0.674-0.41,1.31-0.739,1.909-0.965h0.005
					c0.016-0.005,0.032-0.011,0.043-0.016c0.113-0.043,0.226-0.081,0.34-0.119c0.081-0.027,0.162-0.049,0.248-0.065
					C188.033,70.718,194.234,73.824,188.724,84.747z"/>
			</g>
			<path id="XMLID_70_" style="fill:#C59ACC;" d="M182.119,72.708c0.135-0.059-15.218,17.008-18.248,20.639
				c-2.25,2.696-27.409,10.875-27.409,10.875l-0.167-0.512c10.12-5.338,25.783-10.438,25.783-10.438S174.296,77.447,182.119,72.708z
				"/>
		</g>
		<g id="XMLID_87_">
			<polygon id="XMLID_10_" style="fill:#5A5BA4;" points="184.067,115.129 186.153,149.524 192.803,211.888 179.683,212.966 
				164.406,138.561 144.457,210.45 130.439,210.091 151.216,113.51 			"/>
			<polygon id="XMLID_15_" style="fill:#2E1439;" points="133.764,209.282 132.865,212.607 140.413,212.966 141.305,210.369 			"/>
			<path id="XMLID_36_" style="fill:#F5D132;" d="M139.897,211.776c0,0,1.536,3.1,1.408,9.166l-9.833,0.404h-1.55h-13.816
				c0,0-0.202-2.089,3.639-4.111c3.842-2.022,13.12-4.628,13.12-4.628L139.897,211.776z"/>
			<path id="XMLID_16_" style="fill:#F5D132;" d="M191.387,214.615c0,0,1.536,3.1,1.408,9.166l-9.833,0.404h-1.55h-13.816
				c0,0-0.202-2.089,3.639-4.111s13.12-4.628,13.12-4.628L191.387,214.615z"/>
			<path id="XMLID_11_" style="fill:#434789;" d="M141.305,210.369c0,0,21.368-71.732,20.316-75.327
				c-1.052-3.594-2.526-5.841-2.526-5.841s5.465,2.005,5.312,9.36l-19.949,71.889L141.305,210.369z"/>
			<path id="XMLID_43_" style="fill:#434789;" d="M177.282,114.794c0,0,4.173,3.624,5.277,12.25s7.189,84.214,7.189,84.214
				l3.055,0.629l-6.65-62.364c0,0-0.962-31.844-2.085-34.396L177.282,114.794z"/>
		</g>
		<g id="XMLID_84_">
			<path id="XMLID_75_" style="fill:#F3D7BE;" d="M86.523,71.296c-2.71-0.742-4.789,0.093-5.451-1.643
				c-0.733-1.909-0.915-4.582-2.202-7.584c-2.207-5.128,6.545,0.133,8.397,1.288c0.218,0.133,0.337,0.213,0.337,0.213
				s0,0.333,0.08,0.852c0.058,0.4,0.164,0.915,0.355,1.47c0,0,0,0,0,0.004c0.195,0.577,0.475,1.199,0.884,1.798
				C90.242,69.644,89.769,72.184,86.523,71.296z"/>
			<path id="XMLID_72_" style="fill:#E0A77C;" d="M88.039,65.887c0,0,0,0,0,0.005c0,0,0,0,0,0.004c0,0.062-0.071,0.679-2.025,0.959
				c-2.074,0.298-2.482,0-2.482,0s-0.395,2.22-1.159,2.518c-0.409,0.155-0.884,0.275-1.301,0.28
				c-0.733-1.909-0.915-4.582-2.202-7.584c-2.207-5.128,6.545,0.133,8.397,1.288c0.16,0.369,0.298,0.728,0.417,1.066
				C87.884,64.999,88.017,65.51,88.039,65.887z"/>
			<path id="XMLID_51_" style="fill:#F3D7BE;" d="M90.565,42.029l1.808,7.929c0,0,1.531,8.23-1.669,13.446
				s-10.32,0.103-14.215-2.192c-3.895-2.295-4.329-17.159-4.329-17.159L90.565,42.029z"/>
			<path id="XMLID_50_" style="fill:#2E1439;" d="M82.189,39.891c0,0,0.877,2.83,2.272,3.945c1.395,1.116,4.201,1.271,5.527,2.382
				c2.249,1.885,2.957,7.099,2.66,10.528c-0.296,3.429-2.975,8.181-4.657,8.77c0,0,0.17,2.55,0.866,3.458
				c0.696,0.908,5.048,2.819,7.997,2.4c2.95-0.418,5.779-4.224,5.5-7.054c-0.279-2.83-4.503-5.021-4.503-5.021
				s1.395-0.478,1.116-2.312c-0.279-1.833-2.949-3.139-2.949-3.139s-2.909-6.466-2.869-8.937c0,0-1.915-13.444-14.706-10.123
				C71.754,36.526,82.189,39.891,82.189,39.891z"/>
			<g id="XMLID_47_">
				<path id="XMLID_60_" d="M88.44,57.016l-0.145-0.473c0.007-0.002,0.675-0.216,0.76-0.715c0.067-0.398-0.719-0.784-0.885-0.822
					l0.04-0.178l-0.048-0.31c0.184-0.031,0.757,0.252,1.069,0.569c0.318,0.322,0.345,0.626,0.312,0.824
					C89.407,56.712,88.479,57.004,88.44,57.016z"/>
			</g>
			<g id="XMLID_46_">
				<path id="XMLID_59_" d="M86.691,59.972c-1.03-0.174-2.04-0.924-2.089-0.961l0.297-0.396c0.013,0.009,1.277,0.948,2.275,0.896
					c0.965-0.05,1.393-0.682,1.397-0.688l0.413,0.272c-0.023,0.034-0.572,0.847-1.784,0.91
					C87.032,60.014,86.861,60.001,86.691,59.972z"/>
			</g>
			<path id="XMLID_45_" style="fill:#2E1439;" d="M90.396,47.534c0,0-0.813-0.714-1.708-0.45c-0.895,0.264-0.94,1.342-0.94,1.342
				L90.396,47.534z"/>
			<path id="XMLID_44_" style="fill:#2E1439;" d="M80.595,49.257c0,0,0.498-0.96,1.428-1.039c0.93-0.079,1.363,0.909,1.363,0.909
				L80.595,49.257z"/>
			<path id="XMLID_52_" style="fill:#2E1439;" d="M84.062,39.333c0,0,1.065,4.979-0.408,6.892c-1.474,1.913-4.993,3.654-5.799,5
				c-2.641,4.41,5.505,13.814,4.989,15.966c-0.516,2.152-2.13,2.624-2.13,2.624s1.435,2.876-0.896,5.148
				c-2.331,2.272-7.831,4.244-9.924,0c0,0-7.054,1.853-8.788-2.511c-1.734-4.364-0.418-7.233,0.717-9.864s3.348-2.808,3.647-9.743
				s1.793-11.009,5.051-14.767C74.496,33.493,83.762,32.739,84.062,39.333z"/>
			<path id="XMLID_12_" style="fill:#E0A77C;" d="M81.212,56.393c0,0.851-0.604,1.542-1.348,1.542c-0.745,0-1.348-0.69-1.348-1.542
				s0.604-1.542,1.348-1.542C80.609,54.852,81.212,55.542,81.212,56.393z"/>
			<ellipse id="XMLID_39_" style="fill:#E0A77C;" cx="92.024" cy="53.952" rx="0.687" ry="1.075"/>
			<path id="XMLID_48_" style="fill:#2E1439;" d="M84.172,52.472c0,0-0.875-0.354-1.625-0.333c-0.75,0.021-1.952,0.71-1.952,0.71
				s-0.519-0.126-0.731-0.814l0.731,0.146C80.595,52.18,82.818,50.618,84.172,52.472z"/>
			<path id="XMLID_49_" style="fill:#2E1439;" d="M87.842,51.736c0,0,0.487-0.743,1.082-1.109c0.595-0.366,1.91-0.404,1.91-0.404
				s0.334-0.371,0.123-1.054l-0.489,0.496C90.468,49.664,87.879,49.494,87.842,51.736z"/>
		</g>
		<g id="XMLID_85_">
			<path id="XMLID_3_" style="fill:#F2C39C;" d="M170.37,60.936c0,0,0,2.98-1.803,5.646c-1.803,2.666-3.607,7.136,4.469,6.743
				c8.077-0.392,5.925-6.606,9.294-14.444C185.699,51.043,170.37,60.936,170.37,60.936z"/>
			<path id="XMLID_38_" style="fill:#DD9868;" d="M169.678,64.391c0,0,2.061,0.757,7.144-0.331c4.516-0.966,5.508-5.179,5.508-5.179
				l-1.611-2.396l-10.549,6.324L169.678,64.391z"/>
			<path id="XMLID_4_" style="fill:#F2C39C;" d="M165.116,35.374l-2.039,8.939c0,0-4.548,8.39-0.941,14.271
				s13.801,5.175,18.192,2.588c4.391-2.588,9.018-23.132,9.018-23.132L165.116,35.374z"/>
			<path id="XMLID_5_" style="fill:#2E1439;" d="M163.136,33.413c0,0-0.059,1.882,5.058,3.94c5.117,2.058,13.526,2.705,13.526,2.705
				s-2.176,3.646-2.529,6.469c-0.353,2.823,1,3.94,1,3.94s1.941-1.882,3.293-0.529c1.353,1.353,0.823,5.587-3.529,5.411l2.374,3.532
				c0,0,12.995-14.922,7.016-20.842c0,0,2.666-4.097-4.274-7.861C178.133,26.415,162.489,28.767,163.136,33.413z"/>
			<g id="XMLID_7_">
				<path id="XMLID_58_" d="M166.722,51.415c-0.044-0.022-1.091-0.556-1.091-1.535c0-0.239,0.092-0.589,0.53-0.906
					c0.423-0.306,1.174-0.538,1.383-0.467l-0.169,0.512l0.085-0.256l-0.015,0.268c-0.215,0.01-1.274,0.324-1.274,0.85
					c0,0.644,0.785,1.049,0.793,1.053L166.722,51.415z"/>
			</g>
			<path id="XMLID_9_" style="fill:#2E1439;" d="M165.466,40.196c0,0,1.088-0.764,2.147-0.323s0.97,1.764,0.97,1.764L165.466,40.196
				z"/>
			<path id="XMLID_40_" style="fill:#2E1439;" d="M177.214,43.602c0,0-0.482-1.24-1.607-1.459c-1.126-0.22-1.786,0.93-1.786,0.93
				L177.214,43.602z"/>
			<path id="XMLID_42_" style="fill:#DD9868;" d="M178.419,52.028c0,0.88-0.713,1.593-1.593,1.593c-0.88,0-1.593-0.713-1.593-1.593
				c0-0.88,0.713-1.593,1.593-1.593C177.705,50.435,178.419,51.148,178.419,52.028z"/>
			<path id="XMLID_64_" style="fill:#DD9868;" d="M164.732,48.311c-0.252,0.843-0.975,1.372-1.616,1.181
				c-0.641-0.191-0.956-1.03-0.705-1.873c0.252-0.843,0.975-1.372,1.616-1.181C164.668,46.629,164.983,47.467,164.732,48.311z"/>
			<path id="XMLID_6_" style="fill:#2E1439;" d="M171.891,46.836c0,0,1.682-0.626,3.028-0.438c1.347,0.188,1.44,0.782,1.44,0.782
				s0.125-1.72-1.906-1.718C171.797,45.464,171.891,46.836,171.891,46.836z"/>
			<path id="XMLID_8_" style="fill:#2E1439;" d="M168.176,45.6c0,0-1.121-1.346-2.352-1.84c-1.231-0.494-1.599-0.037-1.599-0.037
				s0.729-1.517,2.448-0.53C168.921,44.484,168.176,45.6,168.176,45.6z"/>
			<path id="XMLID_17_" style="fill:#C67138;" d="M165.631,52.638c0,0,1.437,0.717,3.437,0.983c2,0.267,3.625,0,3.625,0
				s-1.009,3.225-4.109,3.642C165.485,57.68,165.631,52.638,165.631,52.638z"/>
		</g>
		<path id="XMLID_2_" style="fill:#DB879E;" d="M214.296,78.609c0,0,3.032-6.48,6.667-2.507c4,4.372-10.167,12.363-10.167,12.363
			s-6.667-14.151-2.333-15.757C212.796,71.102,214.296,78.609,214.296,78.609z"/>
		<path id="XMLID_65_" style="fill:#DB879E;" d="M114.469,59.534c0,0,1.52-3.25,3.343-1.257c2.006,2.193-5.098,6.2-5.098,6.2
			s-3.343-7.097-1.17-7.902C113.717,55.769,114.469,59.534,114.469,59.534z"/>
		<path id="XMLID_66_" style="fill:#DB879E;" d="M50.402,48.595c0,0,1.52-3.25,3.343-1.257c2.006,2.192-5.098,6.2-5.098,6.2
			s-3.343-7.097-1.17-7.902C49.65,44.831,50.402,48.595,50.402,48.595z"/>
		<path id="XMLID_74_" style="fill:#FFFFFF;" d="M125.402,123.595c0,0,1.52-3.25,3.343-1.257c2.006,2.193-5.098,6.2-5.098,6.2
			s-3.343-7.097-1.17-7.902C124.65,119.831,125.402,123.595,125.402,123.595z"/>
		<path id="XMLID_78_" style="fill:#FFFFFF;" d="M50.579,99.653c0,0-0.232-5.798,3.867-4.291c4.511,1.658-2.714,12.695-2.714,12.695
			s-10.077-7.708-7.555-10.48C46.7,94.805,50.579,99.653,50.579,99.653z"/>
		<path id="XMLID_80_" style="fill:#DB879E;" d="M141.285,56.081c0,0,1.52-3.25,3.343-1.257c2.006,2.193-5.098,6.2-5.098,6.2
			s-3.343-7.097-1.17-7.902C140.532,52.316,141.285,56.081,141.285,56.081z"/>
		<path id="XMLID_81_" style="fill:#FFFFFF;" d="M200.708,126.469c0,0,3.779-4.403,5.754-0.508
			c2.173,4.286-10.634,7.446-10.634,7.446s-2.128-12.507,1.607-12.819S200.708,126.469,200.708,126.469z"/>
	</g>
	<g id="XMLID_294_">
		<path id="XMLID_156_" style="fill:#DB879E;" d="M266.36,108.722c7.116-9.26,23.588-0.701,45.627-10.017
			c22.04-9.316,51.737-33.981,94.555-25.482s71.151,21.599,73.485,55.882c2.333,34.283-85.653,50.873-147.16,44.578
			C271.36,167.388,250.693,129.107,266.36,108.722z"/>
		<g id="XMLID_153_">
			<ellipse id="XMLID_112_" style="fill:#CECECE;" cx="373.452" cy="226.055" rx="80.833" ry="3.518"/>
			<g id="XMLID_111_">
				<polygon id="XMLID_152_" style="fill:#2E1439;" points="375.292,177.571 373.904,180.723 367.802,176.264 368.739,173.683 				
					"/>
				<path id="XMLID_151_" style="fill:#F5D132;" d="M368.952,175.662c0,0-3.142,1.449-6.85,6.251l7.4,6.488l1.207,0.973
					l10.754,8.674c0,0,1.469-1.499-0.252-5.485c-1.721-3.985-7.307-11.839-7.307-11.839L368.952,175.662z"/>
				<path id="XMLID_149_" style="fill:#16393E;" d="M437.604,119.116c0,0,1.938-0.625,2.25-2.625s-3.938-2.063-3.938-2.063
					L437.604,119.116z"/>
				<path id="XMLID_145_" style="fill:#AF80B5;" d="M373.882,91.647c2.612,5.471,5.869,9.488,18.374,15.829
					c12.51,6.341,31.064,10.789,31.064,10.789l2.642-6.496c-0.021-0.011-0.048-0.028-0.069-0.039
					c-10.003-5.553-25.553-10.989-25.553-10.989s-11.876-16.083-19.595-20.989c-0.665-0.424-1.294-0.767-1.888-1.006l-0.005,0
					c-0.016-0.006-0.032-0.011-0.043-0.017c-0.112-0.046-0.225-0.086-0.337-0.126c-0.08-0.029-0.161-0.052-0.247-0.07
					C374.873,77.635,368.608,80.607,373.882,91.647z"/>
				<polygon id="XMLID_146_" style="fill:#434789;" points="381.428,129.105 388.875,144.616 379.875,180.319 365.602,174.533 
					372.958,158.471 369.791,132.699 374.167,127.372 				"/>
				<path id="XMLID_144_" style="fill:#C59ACC;" d="M380.744,79.751c-0.134-0.062,14.849,17.33,17.801,21.026
					c2.192,2.743,27.169,11.46,27.169,11.46l0.178-0.509c-10.003-5.553-25.553-10.989-25.553-10.989S388.464,84.657,380.744,79.751z
					"/>
				<path id="XMLID_143_" style="fill:#F2C39C;" d="M420.044,116.562c0,0,2.763,2.634,6.25,2.926s3.708,0.458,3.708,0.458
					s0.458,3.458,1.333,3.708s1.333-1.208,1.333-1.208s0.336,0.907,1.292,0.703c0.956-0.203,1.083-0.828,1.083-0.828
					s0.524,0.979,1.583,0.583c1.059-0.396,1.333-1.542,1.333-1.542s0.708-4.208-0.625-6.5c-1.333-2.292-11.936-2.737-11.936-2.737
					L420.044,116.562z"/>
				<path id="XMLID_141_" style="fill:#E0A77C;" d="M350.297,83.646c0,0,5.808,9.057,11.75,16.75s20.551,17.063,20.551,17.063
					s2.449-0.481,3.761,0.51c1.313,0.99-1.688,0.928-1.688,0.928s1.039,0.576,2.02,2.726c0.98,2.149-1.164-0.205-2.426-1.163
					c0,0,1.875,1.406,1.906,3.313c0.031,1.906-2.25-2.313-2.25-2.313s1.063,2.375,0.5,2.938s-1.531-2.531-1.531-2.531
					s0.75,1.656,0.125,1.906s-1.656-1.781-1.656-1.781s-28.906-25.656-31.844-29.188c-2.938-3.531-3.406-4.875-3.406-4.875
					L350.297,83.646z"/>
				<rect id="XMLID_116_" x="308.927" y="186.486" style="fill:#16393E;" width="121.683" height="3.125"/>
				<rect id="XMLID_94_" x="329.041" y="134.491" style="fill:#16393E;" width="100.625" height="3.125"/>
				
					<rect id="XMLID_117_" x="295.84" y="158.461" transform="matrix(-0.537 0.8436 -0.8436 -0.537 632.2405 -26.9386)" style="fill:#16393E;" width="55.346" height="3.125"/>
				
					<ellipse id="XMLID_118_" transform="matrix(0.9772 -0.2125 0.2125 0.9772 -32.3184 72.2237)" style="fill:none;stroke:#16393E;stroke-width:5;stroke-miterlimit:10;" cx="319.89" cy="186.486" rx="35.616" ry="36.652"/>
				<path id="XMLID_138_" style="fill:#F3D7BE;" d="M312.43,148.643c0,0,3.892,11.3,3.383,25.396
					c-0.509,14.096-0.636,18.046-0.636,18.046s-2.55,4.429-4.228,4.743c-1.678,0.314-9.791-43.972-7.761-47.918
					c2.031-3.947,18.979-6.693,18.979-6.693S314.496,149.664,312.43,148.643z"/>
				<path id="XMLID_137_" style="fill:#F3D7BE;" d="M330.08,152.172c0,0,0.932,11.915-3.097,25.432
					c-4.029,13.517-5.143,17.309-5.143,17.309s-3.579,3.648-5.282,3.531c-1.703-0.117,1.553-45.022,4.509-48.333
					s20.051-1.718,20.051-1.718S331.824,153.678,330.08,152.172z"/>
				<path id="XMLID_136_" style="fill:#4E70B4;" d="M300.205,149.497c4.67,0,7.566,1.595,18.624,0.605
					c9.469-0.842,15.532,12.03,24.638,7.419c1.532-0.779,10.123-27.12,10.677-29.206c1.32-4.967-4.1-19.76-4.1-19.76
					s-1.727-6.215-1.727-6.225c2.492-4.095,3.63-22.77,3.63-22.77s-15.864-4.148-20.347-0.896c-0.203,0.142-0.386,0.294-0.568,0.457
					c-2.256,2.037-5.022,7.356-4.07,13.034c0.264,1.575,2.632,2.115,3.066,3.982c2.865,12.349-4.916,18.778-4.916,18.778
					s-11.905,6.235-19.485,18.436C303.232,137.208,295.571,149.497,300.205,149.497z"/>
				<g id="XMLID_109_">
					<path id="XMLID_135_" style="fill:#F3D7BE;" d="M337.829,84.341c2.397-1.061,4.432-0.58,4.801-2.274
						c0.41-1.864,0.206-4.355,0.977-7.304c1.322-5.039-6.02,1.034-7.568,2.356c-0.182,0.153-0.282,0.244-0.282,0.244
						s0.046,0.307,0.045,0.798c0.002,0.377-0.024,0.867-0.123,1.405c0,0,0,0,0.001,0.004c-0.1,0.56-0.272,1.172-0.565,1.782
						C334.169,83.334,334.959,85.612,337.829,84.341z"/>
					<path id="XMLID_134_" style="fill:#E0A77C;" d="M335.678,79.562c0,0,0,0,0.001,0.004c0,0,0,0,0.001,0.004
						c0.009,0.057,0.16,0.617,2.002,0.603c1.955-0.014,2.29-0.345,2.29-0.345s0.673,1.993,1.419,2.161
						c0.399,0.087,0.854,0.131,1.239,0.077c0.41-1.864,0.206-4.355,0.977-7.304c1.322-5.039-6.02,1.034-7.568,2.356
						c-0.096,0.362-0.173,0.713-0.237,1.041C335.698,78.721,335.646,79.21,335.678,79.562z"/>
					<path id="XMLID_133_" style="fill:#F3D7BE;" d="M330.028,57.901l-0.565,7.567c0,0-0.267,7.806,3.41,12.174
						c3.678,4.368,9.536-1.341,12.81-4c3.274-2.66,1.606-16.433,1.606-16.433L330.028,57.901z"/>
					<path id="XMLID_132_" style="fill:#2E1439;" d="M337.458,54.763c0,0-0.415,2.733-1.547,3.956
						c-1.132,1.224-3.699,1.758-4.767,2.967c-1.812,2.052-1.74,6.961-0.99,10.084c0.75,3.123,3.883,7.134,5.517,7.443
						c0,0,0.198,2.376-0.318,3.311c-0.516,0.934-4.265,3.303-7.045,3.328c-2.78,0.025-5.919-3.093-6.056-5.743
						c-0.136-2.649,3.456-5.26,3.456-5.26s-1.354-0.247-1.351-1.977c0.002-1.73,2.284-3.306,2.284-3.306s1.784-6.371,1.404-8.645
						c0,0-0.104-12.67,12.159-11.386C346.618,50.207,337.458,54.763,337.458,54.763z"/>
					<path id="XMLID_131_" style="fill:#2E1439;" d="M340.732,66.403c0.156,0.476-0.021,0.962-0.396,1.085
						c-0.375,0.123-0.806-0.163-0.962-0.64c-0.156-0.476,0.021-0.962,0.396-1.085C340.145,65.64,340.576,65.927,340.732,66.403z"/>
					<path id="XMLID_130_" style="fill:#2E1439;" d="M334.024,66.386c0.156,0.476-0.021,0.962-0.396,1.085
						c-0.375,0.123-0.806-0.163-0.962-0.64c-0.156-0.476,0.021-0.962,0.396-1.085C333.437,65.623,333.868,65.909,334.024,66.386z"/>
					<g id="XMLID_128_">
						<path id="XMLID_129_" d="M334.074,71.433l0.068-0.456c-0.007-0.001-0.653-0.105-0.8-0.554
							c-0.117-0.358,0.554-0.824,0.702-0.882l-0.062-0.159l0.001-0.293c-0.174-0.003-0.663,0.338-0.908,0.674
							c-0.249,0.341-0.231,0.625-0.173,0.803C333.14,71.287,334.036,71.427,334.074,71.433z"/>
					</g>
					<g id="XMLID_126_">
						<path id="XMLID_127_" d="M336.099,73.916c0.926-0.304,1.754-1.136,1.794-1.177l-0.329-0.324
							c-0.01,0.011-1.046,1.052-1.975,1.143c-0.897,0.089-1.38-0.435-1.385-0.441l-0.343,0.309c0.026,0.029,0.646,0.702,1.773,0.591
							C335.79,74.002,335.946,73.967,336.099,73.916z"/>
					</g>
					<path id="XMLID_125_" style="fill:#2E1439;" d="M330.951,62.957c0,0,0.651-0.772,1.513-0.653
						c0.862,0.119,1.054,1.107,1.054,1.107L330.951,62.957z"/>
					<path id="XMLID_124_" style="fill:#2E1439;" d="M340.232,63.183c0,0-0.594-0.817-1.462-0.76
						c-0.869,0.057-1.131,1.029-1.131,1.029L340.232,63.183z"/>
					<path id="XMLID_123_" style="fill:#2E1439;" d="M335.653,54.509c0,0-0.29,4.742,1.336,6.301
						c1.626,1.56,5.115,2.676,6.046,3.806c3.05,3.702-3.157,13.511-2.382,15.425c0.775,1.914,2.33,2.124,2.33,2.124
						s-0.924,2.853,1.543,4.625c2.467,1.771,7.816,2.826,9.156-1.381c0,0,6.766,0.728,7.758-3.539
						c0.992-4.267-0.62-6.732-2.034-9.001c-1.414-2.269-3.479-2.124-4.72-8.482c-1.241-6.357-3.186-9.907-6.715-12.921
						C343.665,47.79,335.012,48.384,335.653,54.509z"/>
					<path id="XMLID_122_" style="fill:#E0A77C;" d="M340.656,69.852c0.118,0.786,0.771,1.338,1.458,1.235
						c0.687-0.104,1.148-0.824,1.029-1.61c-0.118-0.786-0.771-1.338-1.458-1.235C340.998,68.346,340.537,69.067,340.656,69.852z"/>
					<path id="XMLID_121_" style="fill:#E0A77C;" d="M329.708,69.201c0.083,0.548,0.433,0.949,0.783,0.896
						c0.35-0.053,0.566-0.54,0.484-1.088c-0.083-0.548-0.433-0.949-0.783-0.896C329.842,68.166,329.625,68.653,329.708,69.201z"/>
				</g>
				
					<rect id="XMLID_113_" x="344.661" y="164.851" transform="matrix(-0.0388 0.9992 -0.9992 -0.0388 546.7677 -193.0964)" style="fill:#16393E;" width="43.181" height="3.125"/>
				<path id="XMLID_110_" style="fill:#AF80B5;" d="M349.438,121.466l31.991,7.641c0,0,1.175-4.841,2.522-11.328
					c2.052-9.87,4.492-23.559,3.791-29.862c-0.552-4.946-5.317-8.233-10.182-10.325c-5.419-2.332-10.963-3.179-10.963-3.179
					s-7.611-0.073-12.818,7.675C349.962,87.765,349.438,121.466,349.438,121.466z"/>
				<path id="XMLID_108_" style="fill:#C59ACC;" d="M377.56,77.592l0.127,0.818c0,0,6.39,3.856,8.115,8.785
					c1.72,4.927-2.119,30.619-2.119,30.619l0.268-0.034c2.052-9.87,4.492-23.559,3.791-29.862
					C387.19,82.971,382.425,79.684,377.56,77.592z"/>
				<path id="XMLID_107_" style="fill:#93659B;" d="M383.017,121l0.201,0.243l-0.718,3.247c0,0-0.056-0.024-0.154-0.066
					l-0.918,4.681l-5.472-5.656c0,0-8.476-7.571-12.417-11.669c-14.132-14.697-10.758-27.38-10.758-27.38L383.017,121z"/>
				<path id="XMLID_106_" style="fill:#AF80B5;" d="M354.463,94.357c2.612,5.47,5.869,9.488,18.374,15.828
					c12.51,6.341,31.064,10.789,31.064,10.789l2.642-6.496c-0.021-0.011-0.048-0.028-0.069-0.039
					c-10.003-5.554-25.553-10.989-25.553-10.989s-11.876-16.083-19.595-20.989c-0.665-0.424-1.294-0.767-1.888-1.006l-0.005,0
					c-0.016-0.006-0.032-0.011-0.043-0.017c-0.112-0.046-0.225-0.086-0.337-0.126c-0.08-0.029-0.161-0.052-0.247-0.07
					C355.453,80.346,349.188,83.318,354.463,94.357z"/>
				<path id="XMLID_95_" style="fill:#C59ACC;" d="M361.324,82.462c-0.134-0.062,14.849,17.33,17.801,21.026
					c2.192,2.743,27.169,11.46,27.169,11.46l0.178-0.508c-10.003-5.554-25.553-10.989-25.553-10.989S369.044,87.368,361.324,82.462z
					"/>
				<g id="XMLID_89_">
					<path id="XMLID_103_" style="fill:#F2C39C;" d="M375.823,75.064c0,0-1.185,2.734-0.59,5.897
						c0.595,3.163,0.472,7.982-6.782,4.41c-7.255-3.571-2.81-8.417-2.785-16.949C365.691,59.891,375.823,75.064,375.823,75.064z"/>
					<path id="XMLID_102_" style="fill:#DD9868;" d="M375.084,78.509c0,0-2.192-0.125-6.423-3.144
						c-3.759-2.682-2.995-6.942-2.995-6.942l2.43-1.558l7.164,9.997L375.084,78.509z"/>
					<path id="XMLID_101_" style="fill:#F2C39C;" d="M390.808,53.698l-1.684,9.013c0,0,0.837,9.507-4.811,13.469
						c-5.648,3.962-14.721-0.739-17.721-4.859c-3-4.12,0.924-24.81,0.924-24.81L390.808,53.698z"/>
					<path id="XMLID_100_" style="fill:#2E1439;" d="M393.404,52.686c0,0-0.694,1.75-6.207,1.604
						c-5.513-0.146-13.487-2.896-13.487-2.896s0.547,4.211-0.252,6.941c-0.799,2.73-2.484,3.218-2.484,3.218
						s-1.033-2.498-2.811-1.795s-2.977,4.799,1.086,6.368l-3.583,2.297c0,0-5.99-18.858,1.85-21.913c0,0-0.817-4.819,7.047-5.514
						C382.427,40.302,395.845,48.681,393.404,52.686z"/>
					<path id="XMLID_99_" style="fill:#2E1439;" d="M375.691,60.322c-0.263,0.606-0.089,1.265,0.389,1.472
						c0.477,0.207,1.077-0.117,1.34-0.723s0.089-1.265-0.389-1.472C376.554,59.392,375.954,59.716,375.691,60.322z"/>
					<path id="XMLID_98_" style="fill:#2E1439;" d="M384.151,61.653c-0.263,0.606-0.089,1.265,0.389,1.472s1.077-0.117,1.34-0.723
						c0.263-0.606,0.089-1.265-0.389-1.472C385.014,60.723,384.414,61.047,384.151,61.653z"/>
					<path id="XMLID_105_" style="fill:#D77144;" d="M379.494,72.272c2.156,0.844,3.258-2.89,3.258-2.89s-1.281,0.068-1.981-0.307
						c-0.699-0.375-2.028-1.511-2.028-1.511S377.337,71.428,379.494,72.272z"/>
					<g id="XMLID_96_">
						<path id="XMLID_97_" d="M382.957,67.778c0.05-0.003,1.222-0.077,1.611-0.975c0.095-0.219,0.15-0.577-0.126-1.042
							c-0.267-0.449-0.864-0.961-1.083-0.979l-0.048,0.537l0.024-0.268l-0.093,0.252c0.193,0.094,1.04,0.804,0.831,1.286
							c-0.256,0.591-1.138,0.65-1.146,0.651L382.957,67.778z"/>
					</g>
					<path id="XMLID_93_" style="fill:#2E1439;" d="M388.569,57.984c0,0-0.694-1.134-1.841-1.15
						c-1.147-0.016-1.592,1.233-1.592,1.233L388.569,57.984z"/>
					<path id="XMLID_92_" style="fill:#2E1439;" d="M376.436,56.438c0,0,0.935-0.946,2.055-0.7c1.12,0.246,1.269,1.564,1.269,1.564
						L376.436,56.438z"/>
					<path id="XMLID_91_" style="fill:#DD9868;" d="M371.98,63.69c-0.35,0.807,0.021,1.746,0.828,2.096
						c0.807,0.35,1.746-0.021,2.095-0.829c0.35-0.808-0.021-1.746-0.828-2.096C373.268,62.512,372.33,62.883,371.98,63.69z"/>
					<path id="XMLID_90_" style="fill:#DD9868;" d="M386.017,65.721c-0.104,0.874,0.349,1.646,1.013,1.726
						c0.664,0.079,1.287-0.565,1.391-1.439c0.104-0.874-0.349-1.646-1.013-1.726C386.744,64.203,386.121,64.847,386.017,65.721z"/>
				</g>
				<path id="XMLID_104_" style="fill:#5A5BA4;" d="M348.708,124.317c0,0-2.059,9.132,3.72,18.966c5.78,9.833,28.408,16,28.408,16
					l-5.795,23.333l16.167,8l7.344-37.333l-25.1-18.667l1.282-7.108l-25.296-6.042L348.708,124.317z"/>
				
					<rect id="XMLID_114_" x="405.29" y="157.964" transform="matrix(0.0722 0.9974 -0.9974 0.0722 558.9081 -281.764)" style="fill:#16393E;" width="51.221" height="3.125"/>
				<path id="XMLID_148_" style="fill:#16393E;" d="M434.125,118.658l-5,0.615c0,0-0.53,0.102-11.417,2.194
					c-12.667,2.434-18.417,0.4-18.417,0.4c-2.25-0.417-3.75,1.917-3.75,1.917s5.583,3.5,13.75,2.667
					c8.167-0.833,16.667-2.667,16.667-2.667l1.535,10.314l3.208,1.032l-1.239-12.861l0,0c0,0,4.662,0.015,4.996-1.444
					C434.791,119.366,434.125,118.658,434.125,118.658z"/>
				
					<ellipse id="XMLID_115_" transform="matrix(0.9772 -0.2124 0.2124 0.9772 -30.1298 96.5457)" style="fill:none;stroke:#16393E;stroke-width:5;stroke-miterlimit:10;" cx="434.223" cy="188.486" rx="35.616" ry="36.652"/>
				<path id="XMLID_120_" style="fill:#F2C39C;" d="M400.625,119.273c0,0,2.763,2.634,6.25,2.927
					c3.487,0.292,3.708,0.458,3.708,0.458s0.458,3.458,1.333,3.708s1.333-1.208,1.333-1.208s0.336,0.907,1.292,0.703
					c0.956-0.203,1.083-0.828,1.083-0.828s0.524,0.979,1.583,0.583c1.059-0.395,1.333-1.542,1.333-1.542s0.708-4.208-0.625-6.5
					c-1.333-2.292-11.936-2.737-11.936-2.737L400.625,119.273z"/>
				<path id="XMLID_140_" style="fill:#4E70B4;" d="M308.376,187.714c0,0-4.408,11.496-3.22,14.011
					c1.188,2.515,8.25-4.923,9.688-7.548s0.562-6.463,0.562-6.463S309.408,191.923,308.376,187.714z"/>
				<path id="XMLID_139_" style="fill:#4E70B4;" d="M316.093,193.199c0,0-5.115,11.263-3.927,13.778
					c1.188,2.515,8.25-4.923,9.688-7.548s0.562-6.463,0.562-6.463S317.124,197.408,316.093,193.199z"/>
				<path id="XMLID_142_" style="fill:#F3D7BE;" d="M326.576,85.395c-2.661,6.191-4.948,21.185-1.781,26.769
					c3.167,5.585,24.941,9.252,28.887,9.168c3.946-0.083,3.295-0.884,3.287-1.15c-0.008-0.267-1.758,0.317-2.258-0.142
					c-0.5-0.458,2.125-0.083,2.708-0.917c0.583-0.833-2.75-0.441-2.75-0.441s2.167,0.066,3.167-0.934s-2.417-0.167-3.125-0.292
					c0,0,2-0.25,2.458-1.167c0.458-0.917-2.25-0.083-4.5-0.125c0,0,0.941-0.333,1.012-1.333s-1.47,0.75-2.929,0.958
					c-1.458,0.208-19.042-3.417-20.5-5.458c-1.458-2.042-1.578-6.633-1.042-11.708c0.536-5.075-1.183-4.626-1.958-6
					c-0.753-1.334-0.029-5.071,0.058-6.84L326.576,85.395z"/>
				<path id="XMLID_119_" style="fill:#16393E;" d="M436.541,186.949c0,2.439-1.903,4.417-4.25,4.417s-4.25-1.977-4.25-4.417
					c0-2.439,1.903-4.417,4.25-4.417S436.541,184.51,436.541,186.949z"/>
				<polygon id="XMLID_150_" style="fill:#2E1439;" points="385.264,187.774 383.876,190.926 377.775,186.467 378.711,183.886 				
					"/>
				<path id="XMLID_147_" style="fill:#F5D132;" d="M377.881,186.133c0,0-2.768,2.076-5.387,7.548l8.596,4.792l1.384,0.699
					l12.334,6.226c0,0,1.122-1.774-1.396-5.31c-2.518-3.536-9.627-10.043-9.627-10.043L377.881,186.133z"/>
				<polygon id="XMLID_154_" style="fill:#16393E;" points="374.604,198.046 386.979,204.616 388.219,202.072 375.292,195.241 				
					"/>
			</g>
		</g>
		<path id="XMLID_157_" style="fill:#FFFFFF;" d="M295.91,124.003c0,0,1.52-3.25,3.343-1.257c2.006,2.192-5.099,6.2-5.099,6.2
			s-3.343-7.097-1.17-7.902C295.158,120.238,295.91,124.003,295.91,124.003z"/>
		<path id="XMLID_155_" style="fill:#FFFFFF;" d="M423.094,94.222c0,0,3.779-4.403,5.754-0.508
			c2.173,4.286-10.634,7.446-10.634,7.446s-2.128-12.507,1.607-12.819S423.094,94.222,423.094,94.222z"/>
		<path id="XMLID_158_" style="fill:#FFFFFF;" d="M450.585,133.556c0,0,1.52-3.25,3.343-1.257c2.006,2.192-5.099,6.2-5.099,6.2
			s-3.343-7.097-1.17-7.902S450.585,133.556,450.585,133.556z"/>
		<path id="XMLID_160_" style="fill:#DB879E;" d="M295.91,87.725c0,0,1.52-3.25,3.343-1.257c2.006,2.193-5.099,6.2-5.099,6.2
			s-3.343-7.097-1.17-7.902C295.158,83.96,295.91,87.725,295.91,87.725z"/>
		<path id="XMLID_159_" style="fill:#DB879E;" d="M402.169,59.102c0,0,1.52-3.25,3.343-1.257c2.006,2.193-5.098,6.2-5.098,6.2
			s-3.343-7.097-1.17-7.902C401.417,55.337,402.169,59.102,402.169,59.102z"/>
		<path id="XMLID_161_" style="fill:#DB879E;" d="M430.569,58.779c0,0,3.032-6.48,6.667-2.507c4,4.372-10.167,12.363-10.167,12.363
			s-6.667-14.151-2.333-15.757C429.069,51.271,430.569,58.779,430.569,58.779z"/>
	</g>
	<g id="XMLID_295_">
		<path id="XMLID_219_" style="fill:#DB879E;" d="M33.994,295.828c-3.52,28.524,17.426,35.89,9.624,68.485
			c-7.802,32.595,13.562,58.919,34.954,65.631c46.469,14.58,89.535-0.547,95.12-31.042c6.505-35.514-6.192-67.374-45.09-77.602
			c-38.898-10.229-39.661-33.884-51.324-47.38C65.616,260.424,37.598,266.625,33.994,295.828z"/>
		<path id="XMLID_202_" style="fill:#CECECE;" d="M197.063,463.737c0,4.7-36.19,8.51-80.833,8.51s-80.833-3.81-80.833-8.51
			c0-4.7,36.19-8.51,80.833-8.51S197.063,459.037,197.063,463.737z"/>
		<path id="XMLID_192_" style="fill:#F2C39C;" d="M129.757,355.267c0,0,1.875,1,3.917,3.125c2.042,2.125,2.583,2.625,2.042,2.917
			c-0.542,0.292-2.881-1.458-2.881-1.458s1.995,2.348,3.276,5.179c1.281,2.832,0.375,3.082-0.313,2.332s-1.633-2.332-1.633-2.332
			s0.414,2.925-0.148,3.769c-0.563,0.844-1.875-3.531-1.875-3.531s0.313,3.56-0.375,3.639c-0.688,0.079-1.094-3.202-1.094-3.202
			s0,2.375-0.688,2.531c-0.688,0.156-0.813-2.719-0.813-2.719s-2.906-2.406-3.625-4.438
			C124.83,359.048,129.757,355.267,129.757,355.267z"/>
		<polygon id="XMLID_218_" style="fill:#2E1439;" points="81.757,446.952 80.216,452.85 73.049,451.392 74.216,444.683 		"/>
		<g id="XMLID_217_">
			<path id="XMLID_181_" style="fill:#F5D132;" d="M124.708,447.603c0,0-1.536,3.1-1.408,9.166l9.833,0.404h1.55h13.816
				c0,0,0.202-2.089-3.639-4.111c-3.842-2.022-13.12-4.628-13.12-4.628L124.708,447.603z"/>
			<polygon id="XMLID_182_" style="fill:#2E1439;" points="130.841,445.109 131.74,448.434 124.191,448.794 123.3,446.197 			"/>
		</g>
		<path id="XMLID_193_" style="fill:#AF80B5;" d="M98.719,310.313c-0.259,5.483,2.945,12.723,4.365,14.803
			c7.157,10.486,22.09,36.901,22.09,36.901l5.5-6.389c-5.59-8.729-16.063-28.111-16.063-28.111s-1.97-13.813-5.085-19.461
			C107.407,304.215,99.256,298.972,98.719,310.313z"/>
		<path id="XMLID_25_" style="fill:#AF80B5;" d="M113.389,349.342l-25.81,1.27l-7.04,0.35l-0.01-0.02c-0.24-0.88-8.89-32.58-6.84-39
			c1.75-5.52,5.24-8.41,7.63-9.81c1.47-0.86,2.53-1.15,2.53-1.15s5.55-0.74,11.41-0.02c5.26,0.65,10.75,2.47,12.67,7.07
			c2.43,5.85,3.92,19.68,4.71,29.73C113.169,344.362,113.389,349.342,113.389,349.342z"/>
		<path id="XMLID_189_" style="fill:#C59ACC;" d="M95.259,300.965l0.35,0.75c0,0,7.214,1.914,10.25,6.163
			c3.03,4.249,6.535,29.988,6.535,29.988l0.248-0.108c-0.793-10.05-2.281-23.874-4.718-29.73
			C106.01,303.435,100.516,301.612,95.259,300.965z"/>
		<path id="XMLID_24_" style="fill:#93659B;" d="M87.669,351.032l-2.07,2.6c0,0-0.04-0.04-0.11-0.12l-2.87,3.81l-2.08-6.36
			l-0.01-0.02c-0.24-0.88-8.89-32.58-6.84-39c1.75-5.52,5.24-8.41,7.63-9.81l6.26,48.48l0.01,0.11L87.669,351.032z"/>
		<polygon id="XMLID_183_" style="fill:#5A5BA4;" points="80.538,350.956 78.452,385.352 71.802,447.715 84.922,448.794 
			100.199,374.388 120.148,446.277 134.166,445.918 113.389,349.337 		"/>
		<path id="XMLID_180_" style="fill:#F5D132;" d="M73.218,450.442c0,0-1.536,3.1-1.408,9.166l9.833,0.404h1.55h13.816
			c0,0,0.202-2.089-3.639-4.111c-3.842-2.022-13.12-4.628-13.12-4.628L73.218,450.442z"/>
		<path id="XMLID_179_" style="fill:#434789;" d="M123.3,446.197c0,0-21.368-71.732-20.316-75.327
			c1.052-3.594,2.526-5.841,2.526-5.841s-5.465,2.005-5.312,9.36l19.949,71.889L123.3,446.197z"/>
		<path id="XMLID_178_" style="fill:#434789;" d="M87.323,350.622c0,0-4.173,3.624-5.277,12.251
			c-1.104,8.627-7.329,85.083-7.329,85.083l-2.915-0.24l6.65-62.364c0,0,0.962-31.844,2.086-34.396L87.323,350.622z"/>
		<path id="XMLID_176_" style="fill:#F2C39C;" d="M94.235,296.764c0,0,0,2.98,1.803,5.646c1.804,2.666,3.607,7.136-4.469,6.744
			c-8.077-0.392-5.925-6.606-9.294-14.444C78.906,286.87,94.235,296.764,94.235,296.764z"/>
		<path id="XMLID_175_" style="fill:#DD9868;" d="M94.927,300.218c0,0-2.061,0.757-7.144-0.331
			c-4.516-0.966-5.508-5.179-5.508-5.179l1.611-2.396l10.549,6.324L94.927,300.218z"/>
		<path id="XMLID_174_" style="fill:#F2C39C;" d="M99.489,271.201l2.039,8.939c0,0,4.548,8.39,0.941,14.271
			c-3.607,5.881-13.801,5.175-18.192,2.588c-4.391-2.588-9.018-23.132-9.018-23.132L99.489,271.201z"/>
		<path id="XMLID_173_" style="fill:#2E1439;" d="M101.469,269.241c0,0,0.059,1.882-5.058,3.94
			c-5.117,2.058-13.526,2.705-13.526,2.705s2.176,3.646,2.529,6.469c0.353,2.823-1,3.94-1,3.94s-1.941-1.882-3.293-0.529
			c-1.353,1.353-0.823,5.587,3.529,5.41l-2.374,3.532c0,0-12.995-14.921-7.016-20.842c0,0-2.666-4.097,4.274-7.861
			C86.472,262.242,102.116,264.595,101.469,269.241z"/>
		<ellipse id="XMLID_172_" style="fill:#2E1439;" cx="90.314" cy="283.394" rx="0.942" ry="1.196"/>
		<ellipse id="XMLID_171_" style="fill:#2E1439;" cx="98.705" cy="280.619" rx="0.942" ry="1.196"/>
		<g id="XMLID_169_">
			<path id="XMLID_170_" d="M97.883,287.242c0.044-0.022,1.091-0.556,1.091-1.535c0-0.238-0.092-0.589-0.53-0.906
				c-0.423-0.306-1.174-0.538-1.383-0.468l0.169,0.512l-0.084-0.256l0.015,0.268c0.215,0.01,1.274,0.324,1.274,0.85
				c0,0.644-0.785,1.049-0.793,1.053L97.883,287.242z"/>
		</g>
		<g id="XMLID_167_">
			<path id="XMLID_168_" d="M96.383,291.179c0.21,0,0.417-0.019,0.616-0.063c1.44-0.32,1.932-1.402,1.952-1.448l-0.493-0.219
				c-0.016,0.036-0.412,0.882-1.576,1.141c-1.211,0.269-2.947-0.614-2.964-0.623l-0.248,0.479
				C93.737,290.48,95.109,291.179,96.383,291.179z"/>
		</g>
		<path id="XMLID_166_" style="fill:#2E1439;" d="M99.139,276.023c0,0-1.088-0.764-2.147-0.323c-1.059,0.441-0.97,1.764-0.97,1.764
			L99.139,276.023z"/>
		<path id="XMLID_165_" style="fill:#2E1439;" d="M87.391,279.43c0,0,0.482-1.24,1.607-1.459c1.126-0.22,1.786,0.93,1.786,0.93
			L87.391,279.43z"/>
		<path id="XMLID_164_" style="fill:#DD9868;" d="M86.186,287.856c0,0.88,0.713,1.593,1.593,1.593c0.88,0,1.593-0.713,1.593-1.593
			c0-0.88-0.713-1.594-1.593-1.594C86.9,286.262,86.186,286.976,86.186,287.856z"/>
		<path id="XMLID_163_" style="fill:#DD9868;" d="M99.873,284.138c0.252,0.843,0.975,1.372,1.616,1.181
			c0.641-0.191,0.956-1.03,0.705-1.873c-0.252-0.843-0.975-1.372-1.616-1.181C99.937,282.456,99.622,283.295,99.873,284.138z"/>
		<path id="XMLID_215_" style="fill:#F3D7BE;" d="M113.354,459.657h-6.84c0,0,0,0-0.79-2.82c-0.48-1.75-1.27-4.59-2.55-9.2
			c-3.34-12.01-4-22.69-4-22.69l-4.59-18.07l-2.86-11.28l13.76-4.06l0.78-0.23l0.17,2.15l0.66,8.17l0.06,0.77l1.8,22.55
			L113.354,459.657z"/>
		<polygon id="XMLID_205_" style="fill:#E0A77C;" points="107.094,401.627 94.584,406.877 91.724,395.597 105.484,391.537 
			106.434,393.457 		"/>
		<path id="XMLID_204_" style="fill:#F3D7BE;" d="M85.254,396.527l-0.5,0.92l-3.66,6.77v0.01l-0.25,0.47l-8.84,16.36l-27.82,31.05
			l-1.99-4.54l-0.32-0.74c4.63-16.02,22.46-28.9,22.46-28.9l0.82-15.18v-0.09l0.1-1.83l0.41-7.72l19.27,3.36L85.254,396.527z"/>
		<path id="XMLID_203_" style="fill:#E0A77C;" d="M84.934,396.467l-0.18,0.98l-3.66,6.77v0.01l-0.25,0.47
			c-0.46-0.13-1.02-0.28-1.68-0.46c-3.18-0.87-10.72-1.33-14.01-1.49v-0.09l0.1-1.83l0.41-7.72L84.934,396.467z"/>
		<path id="XMLID_201_" style="fill:#4E70B4;" d="M112.234,400.087c-4.26,1.29-14.79,3.09-25.3,1.87c-9-1.04-15.79,3.09-24.35-1.53
			c-1.44-0.78-2.92-1.81-4.48-3.15c0,0,4.9-7.67,7.19-22.95c2.6-17.32,10.86-19.93,10.86-19.93s-9.62-14.73-11.76-24.58
			c0,0-0.01,0-0.01-0.01c-0.37-1.71-0.52-3.27-0.35-4.58c1.19-9.26,8.4-10.33,8.4-10.33s8.95-0.55,13.14,2.66
			c0.19,0.14,0.36,0.29,0.53,0.45c2.68,2.55,10.18,6.34,8.06,14.48c-3.04,11.69,3.91,20.32,3.91,20.32l0.76,2.82
			c0.01,0.01,0.01,0.02,0.01,0.02l8.34,30.9L112.234,400.087z"/>
		<path id="XMLID_200_" style="fill:#38598E;" d="M77.604,354.427c0,0-6.88,7.25-8.5,16.87c-1.63,9.63-2.31,20.38-4.13,24.57
			c-1.81,4.18-2.33,4.58-2.33,4.58l-0.06-0.02c-1.44-0.78-2.92-1.81-4.48-3.15c0,0,4.9-7.67,7.19-22.95
			c2.6-17.32,10.86-19.93,10.86-19.93s-9.62-14.73-11.76-24.58c8.27-17.656,5.122-7.539,5.573-4.806
			C71.501,334.298,77.604,354.427,77.604,354.427z"/>
		<path id="XMLID_199_" style="fill:#7A9CD3;" d="M98.834,355.627c-0.27-0.51-4.53-8.74-6.04-13.74c-1.57-5.17,0.62-9.96,0-14.02
			c-0.63-4.07-7.62-9.5-7.62-9.5l0.4-0.81c0.19,0.14,0.36,0.29,0.53,0.45c2.68,2.55,10.18,6.34,8.06,14.48
			c-3.04,11.69,3.91,20.32,3.91,20.32L98.834,355.627z"/>
		<path id="XMLID_190_" style="fill:#F2C39C;" d="M90.143,354.814c0,0,0.922-0.719,2.516-1.25c1.594-0.531,3.344-0.047,4.031,0
			s0.296,0.821-1.047,1.078c-0.734,0.141-0.796,0.606-0.781,0.668c0.016,0.063,3.573-0.099,3.802-0.314c0,0,0.494-0.123,0.791,0.316
			c0.297,0.439-0.403,1.107-0.403,1.107s0.387-0.027,0.7,0.301c0.313,0.328-0.321,1.103-0.321,1.103s0.54,0.1,0.571,0.662
			c0.031,0.563-0.297,0.844-0.297,0.844s0.344,0.234-0.016,0.953c-0.359,0.719-2.625,1.406-5.813,0.969s-3.734-0.629-3.734-0.629
			V354.814z"/>
		<path id="XMLID_187_" style="fill:#AF80B5;" d="M60.924,348.642c2.262,7.57,29.387,11.981,29.387,11.981l0.526-6.071
			c-8.134-4.716-18.25-7.638-18.25-7.638s-4.653-27.218-4.85-27.827c0,0-4.724,0.03-4.726,0.018
			C59.883,320.632,56.91,335.208,60.924,348.642z"/>
		<path id="XMLID_198_" style="fill:#F3D7BE;" d="M81.783,392.325c-1.381-1.405-1.324-2.289-1.324-2.289s-0.938,0.586-2.15-0.733
			c-1.205-1.312-0.859-2.072-0.859-2.072s-1.139,0.039-1.598-0.771c-0.453-0.803-0.105-1.719-0.105-1.719s-0.588,0.073-1.047-0.723
			c-0.46-0.81,0.451-3.878,0.451-3.878s-0.869-2.511-2.221-6.398c-1.848-5.348-4.592-13.32-7.219-21.002
			c-4.522-13.277-4.943-20.925-4.091-26.094c0.792-4.787,2.517-7.184,4.307-8.129c0,0,0,0,0.007-0.007
			c2.856-1.488,5.87,0.667,5.626,2.772c-1.281,11.352,1.971,30.827,1.971,30.827s4.312,14.633,7.582,25.608
			c0,0,2.603,0.78,3.975,2.262c1.373,1.483,2.917,3.639,2.073,3.893c-0.844,0.24-3.147-1.59-3.899-1.258
			c-0.767,0.333-0.62,7.773,1.134,9.316C86.15,393.459,83.157,393.723,81.783,392.325z"/>
		<path id="XMLID_197_" style="fill:#2E1439;" d="M42.504,444.887c0,0-7.025,5.498-7.335,6.179
			c-0.31,0.681,2.477,18.456,5.264,17.651c2.787-0.805,3.754-16.606,3.754-16.606L42.504,444.887z"/>
		<path id="XMLID_191_" style="fill:#2E1439;" d="M105.514,456.73c0,0,1.02,10.962,1.485,11.548
			c0.465,0.586,23.444,1.201,21.027-0.404c-2.718-1.806-14.673-11.039-14.673-11.039L105.514,456.73z"/>
		<g id="XMLID_18_">
			<path id="XMLID_188_" style="fill:#F3D7BE;" d="M77.975,318.848c-2.71-0.741-4.789,0.093-5.451-1.643
				c-0.733-1.909-0.915-4.582-2.202-7.584c-2.207-5.129,6.545,0.133,8.397,1.288c0.218,0.133,0.337,0.213,0.337,0.213
				s0,0.333,0.08,0.853c0.058,0.4,0.164,0.915,0.355,1.47c0,0,0,0,0,0.004c0.195,0.577,0.475,1.199,0.884,1.798
				C81.693,317.196,81.22,319.736,77.975,318.848z"/>
			<path id="XMLID_185_" style="fill:#E0A77C;" d="M79.491,313.44c0,0,0,0,0,0.005c0,0,0,0,0,0.004c0,0.062-0.071,0.679-2.025,0.959
				c-2.074,0.297-2.482,0-2.482,0s-0.395,2.22-1.159,2.518c-0.409,0.155-0.884,0.275-1.301,0.28
				c-0.733-1.909-0.915-4.582-2.202-7.584c-2.207-5.129,6.545,0.133,8.397,1.288c0.16,0.369,0.298,0.728,0.417,1.066
				C79.335,312.552,79.469,313.062,79.491,313.44z"/>
			<path id="XMLID_32_" style="fill:#F3D7BE;" d="M82.016,289.581l1.808,7.929c0,0,1.531,8.23-1.669,13.446
				s-10.32,0.103-14.215-2.192c-3.895-2.295-4.329-17.159-4.329-17.159L82.016,289.581z"/>
			<path id="XMLID_31_" style="fill:#2E1439;" d="M73.64,287.443c0,0,0.877,2.83,2.272,3.945c1.395,1.116,4.201,1.272,5.527,2.383
				c2.249,1.885,2.957,7.099,2.66,10.528c-0.296,3.429-2.975,8.181-4.657,8.77c0,0,0.17,2.55,0.866,3.458
				c0.696,0.908,5.048,2.819,7.997,2.4c2.95-0.418,5.779-4.224,5.5-7.054c-0.279-2.83-4.503-5.022-4.503-5.022
				s1.395-0.478,1.116-2.311c-0.279-1.833-2.949-3.139-2.949-3.139s-2.909-6.466-2.869-8.937c0,0-1.915-13.444-14.706-10.123
				C63.205,284.079,73.64,287.443,73.64,287.443z"/>
			<path id="XMLID_30_" style="fill:#2E1439;" d="M73.577,300.302c-0.089,0.53,0.176,1.016,0.593,1.087
				c0.417,0.07,0.828-0.302,0.917-0.832c0.089-0.53-0.176-1.016-0.593-1.087C74.077,299.4,73.666,299.772,73.577,300.302z"/>
			<path id="XMLID_29_" style="fill:#2E1439;" d="M80.683,299.212c-0.089,0.53,0.176,1.016,0.593,1.087
				c0.417,0.07,0.828-0.302,0.917-0.832c0.089-0.53-0.176-1.016-0.593-1.087C81.183,298.31,80.773,298.682,80.683,299.212z"/>
			<g id="XMLID_27_">
				<path id="XMLID_28_" d="M79.892,304.568l-0.145-0.473c0.007-0.002,0.675-0.216,0.76-0.715c0.067-0.398-0.719-0.784-0.885-0.822
					l0.04-0.178l-0.048-0.31c0.184-0.031,0.757,0.252,1.069,0.569c0.318,0.322,0.345,0.626,0.312,0.824
					C80.858,304.264,79.931,304.556,79.892,304.568z"/>
			</g>
			<g id="XMLID_23_">
				<path id="XMLID_26_" d="M78.143,307.524c-1.03-0.174-2.04-0.924-2.089-0.961l0.297-0.396c0.013,0.009,1.277,0.948,2.275,0.896
					c0.965-0.05,1.393-0.682,1.397-0.688l0.413,0.273c-0.023,0.034-0.572,0.847-1.784,0.91
					C78.484,307.566,78.313,307.553,78.143,307.524z"/>
			</g>
			<path id="XMLID_22_" style="fill:#2E1439;" d="M81.847,295.087c0,0-0.813-0.714-1.708-0.45c-0.895,0.264-0.94,1.342-0.94,1.342
				L81.847,295.087z"/>
			<path id="XMLID_21_" style="fill:#2E1439;" d="M72.047,296.81c0,0,0.498-0.96,1.428-1.039c0.93-0.079,1.363,0.909,1.363,0.909
				L72.047,296.81z"/>
			<path id="XMLID_20_" style="fill:#2E1439;" d="M75.513,286.885c0,0,1.065,4.979-0.408,6.892c-1.474,1.913-4.993,3.654-5.799,5
				c-2.641,4.41,5.505,13.814,4.989,15.966c-0.516,2.152-2.13,2.624-2.13,2.624s1.435,2.876-0.896,5.148
				c-2.331,2.272-7.831,4.244-9.924,0c0,0-7.054,1.853-8.788-2.511c-1.734-4.364-0.418-7.233,0.717-9.864s3.348-2.808,3.647-9.743
				c0.299-6.935,1.793-11.009,5.051-14.767C65.948,281.046,75.214,280.292,75.513,286.885z"/>
			<path id="XMLID_19_" style="fill:#E0A77C;" d="M72.664,303.946c0,0.851-0.604,1.542-1.348,1.542c-0.745,0-1.348-0.69-1.348-1.542
				c0-0.851,0.604-1.542,1.348-1.542C72.06,302.404,72.664,303.094,72.664,303.946z"/>
			<ellipse id="XMLID_57_" style="fill:#E0A77C;" cx="83.476" cy="301.505" rx="0.687" ry="1.075"/>
		</g>
		<path id="XMLID_216_" style="fill:#38598E;" d="M90.505,333.286c0,0-3.625-0.25-8.563,1.063s-4.938,2.243-4.938,2.243
			S88.17,335.597,90.505,333.286z"/>
		<path id="XMLID_222_" style="fill:#DB879E;" d="M116.839,298.404c0,0,1.52-3.25,3.343-1.258c2.006,2.193-5.098,6.2-5.098,6.2
			s-3.343-7.097-1.17-7.902C116.087,294.639,116.839,298.404,116.839,298.404z"/>
		<path id="XMLID_221_" style="fill:#DB879E;" d="M28.027,349.687c0,0,1.52-3.25,3.343-1.257c2.006,2.193-5.099,6.2-5.099,6.2
			s-3.343-7.097-1.17-7.902C27.274,345.922,28.027,349.687,28.027,349.687z"/>
		<path id="XMLID_220_" style="fill:#DB879E;" d="M185.022,383.388c0,0,1.52-3.25,3.343-1.258c2.006,2.193-5.098,6.2-5.098,6.2
			s-3.343-7.097-1.17-7.902C184.27,379.623,185.022,383.388,185.022,383.388z"/>
		<path id="XMLID_224_" style="fill:#FFFFFF;" d="M48.487,294.019c0,0-0.26-4.707,3.009-3.431
			c3.598,1.404-1.985,10.264-1.985,10.264s-8.089-6.386-6.126-8.602C45.348,290.034,48.487,294.019,48.487,294.019z"/>
		<path id="XMLID_225_" style="fill:#FFFFFF;" d="M143.896,411.084c0,0-0.171-3.086,1.973-2.249
			c2.358,0.921-1.301,6.728-1.301,6.728s-5.303-4.186-4.016-5.639C141.838,408.472,143.896,411.084,143.896,411.084z"/>
		<path id="XMLID_226_" style="fill:#FFFFFF;" d="M151.872,367.552c0,0,1.253-3.988,3.569-1.908
			c2.548,2.289-4.852,7.899-4.852,7.899s-4.721-7.825-2.399-9.052C150.511,363.266,151.872,367.552,151.872,367.552z"/>
	</g>
	<g id="XMLID_296_">
		<path id="XMLID_287_" style="fill:#DB879E;" d="M338.231,325.327c-37.625,14.577-56.079,18.087-57.292,49.577
			c-1.333,34.62,31.333,43,76,43.333c44.667,0.333,82-2.393,99-20.53c17-18.137,40.162-63.64,10.081-89.889
			C435.939,281.57,375.856,310.75,338.231,325.327z"/>
		<g id="XMLID_285_">
			<path id="XMLID_284_" style="fill:#CECECE;" d="M459.109,453.281c0,8.278-43.077,14.989-96.216,14.989
				c-53.138,0-96.216-6.711-96.216-14.989c0-8.278,43.077-14.989,96.216-14.989C416.032,438.293,459.109,445.003,459.109,453.281z"
				/>
			<path id="XMLID_283_" style="fill:#16393E;" d="M314.103,391.397c0,0,9.348,3.991,10.906,14.899
				c1.558,10.908,2.337,42.288,2.337,42.288h-6.621c0,0,2.723-37.011-2.726-44.15c-5.449-7.138-10.321-8.001-10.321-8.001
				L314.103,391.397z"/>
			<polygon id="XMLID_277_" style="fill:#16393E;" points="313.927,353.011 305.427,388.45 313.546,389.511 321.665,353.011 			"/>
			<polygon id="XMLID_278_" style="fill:#16393E;" points="431.677,416.974 468.927,407.305 468.927,398.511 305.927,387.011 
				272.177,395.776 270.927,400.761 			"/>
			<polygon id="XMLID_276_" style="fill:#16393E;" points="302.103,337.483 298.435,354.923 461.677,361.011 466.677,336.99 			"/>
			<polygon id="XMLID_272_" style="fill:#2E1439;" points="342.905,450.998 343.808,454.323 351.356,454.682 351.238,451.886 			"/>
			<g id="XMLID_267_">
				<path id="XMLID_270_" style="fill:#F5D132;" d="M380.945,455.492c0,0,1.536,3.1,1.408,9.166l-9.833,0.404h-1.55h-13.816
					c0,0-0.202-2.089,3.639-4.111c3.842-2.022,13.12-4.628,13.12-4.628L380.945,455.492z"/>
				<polygon id="XMLID_269_" style="fill:#2E1439;" points="373.011,452.998 373.914,456.323 381.462,456.682 381.344,453.886 				
					"/>
			</g>
			<path id="XMLID_227_" style="fill:#AF80B5;" d="M383.796,331.511c0,0-10.379,2.833-27.624,11.833c0,0-25.578-7-31.578-7.833
				c-6-0.833-7.083,1.917-7.083,1.917l2.833,5.5l37.299,10.083l25.945-8.457l0.208-12.702"/>
			<path id="XMLID_245_" style="fill:#F3D7BE;" d="M340.318,340.816c-2.037-0.452-4.061,0.762-4.651,2.763
				c-0.004,0.013-0.007,0.025-0.011,0.038c-5.794,19.623-18.616,40.964-21.89,43.996c-3.273,3.032-5.678,5.358-5.678,5.358
				c-1.792,0.695-3.723,2.162-3.114,2.457c0.609,0.296,1.972-0.494,1.972-0.494s-0.173,0.347-1.683,1.361
				c-1.509,1.014-2.47,3.467-2.072,3.555c0.332,0.074,1.881-1.507,2.382-2.03c-0.735,0.827-2.604,3.564-2.007,3.815
				c0.646,0.272,2.855-2.45,2.855-2.45c-3.14,3.736-1.671,4.64-0.719,3.245c0.951-1.395,3.256-3.389,3.256-3.389
				s-2.365,3.137-1.338,3.429c1.027,0.292,2.114-2.293,5.833-4.874c3.719-2.58,6.321-7.656,6.321-7.656
				c7.569-5.372,19.57-22.193,25.482-43.747c0.603-2.197-0.772-4.454-2.996-4.946L340.318,340.816z"/>
			<path id="XMLID_243_" style="fill:#E0A77C;" d="M330.353,384.053c0,0-14.846,6.495-20.28,13.123
				c-5.435,6.628,3.792,47.898,3.792,47.898l7.047,1.364c0,0,2.946-33.488-0.765-42.899l19.087-5.965
				C339.234,397.573,336.981,388.692,330.353,384.053z"/>
			<path id="XMLID_249_" style="fill:#2E1439;" d="M321.265,442.985c0,0,1.961,10.857,1.496,11.443
				c-0.465,0.586-26.584,1.59-24.168-0.015c2.718-1.806,14.673-11.039,14.673-11.039L321.265,442.985z"/>
			<path id="XMLID_244_" style="fill:#F3D7BE;" d="M343.374,388.178c0,0-14.846,6.495-20.28,13.123
				c-5.435,6.628,3.667,47.627,3.667,47.627l7.069,2.875c0,0,3.049-34.729-0.663-44.14l19.087-5.965
				C352.255,401.698,350.001,392.817,343.374,388.178z"/>
			<path id="XMLID_268_" style="fill:#38598E;" d="M358.907,336.261c0,0,7.52,0.285,8.77,4.035s-5.635,32.257-5.635,32.257
				s6.708,12.333,3.359,23.458c-3.349,11.125-20.003,12.25-20.003,12.25s-5.263-7.042-16.138-11.667s-17.056-1.618-17.056-1.618
				s3.806-5.548,15.556-10.132c14.322-5.586,13.042-12.291,13.042-12.291s-1.011-11.417-1.568-13.667
				c-0.557-2.25-2.646-2-3.039-7.875c-0.393-5.875,8.357-15.5,8.357-15.5L358.907,336.261z"/>
			<path id="XMLID_247_" style="fill:#2E1439;" d="M334.265,445.985c0,0,1.961,10.857,1.496,11.443
				c-0.465,0.586-26.584,1.59-24.168-0.015c2.718-1.806,14.673-11.039,14.673-11.039L334.265,445.985z"/>
			<path id="XMLID_241_" style="fill:#434789;" d="M339.802,453.136l13.75,0.75c0,0-1.5-28-4-35.125c0,0,34.664-15.25,39.02-22.75
				s3.105-18,3.105-18l-15.744-0.167c0,0-34.381,25.042-38.006,31.542S339.802,453.136,339.802,453.136z"/>
			<path id="XMLID_242_" style="fill:#5A5BA4;" d="M369.257,455.178c0,0-4.207-30.246-2.913-37.667
				c1.294-7.421,22.228-38.741,22.228-38.741l16.939,1.241c0,0-1.691,11.167-5.345,17.333c-3.655,6.167-21.321,23.167-21.321,23.167
				s4.151,22.333,3.409,34.667H369.257z"/>
			<path id="XMLID_248_" style="fill:#AF80B5;" d="M405.511,380.011l-29.577-2.167c0,0,0.18-6.893,0.063-12.978
				c-0.181-9.259-0.067-22.032,1.633-27.604c1.336-4.372,6.194-6.533,10.942-7.599c5.288-1.188,10.436-1.014,10.436-1.014
				s6.884,1.223,10.274,9.1C411.768,343.521,405.511,380.011,405.511,380.011z"/>
			<path id="XMLID_246_" style="fill:#C59ACC;" d="M388.572,329.663l-0.253,0.717c0,0-6.423,2.4-8.815,6.558
				c-2.387,4.157-3.271,28.005-3.271,28.005l-0.236-0.076c-0.181-9.259-0.067-22.032,1.633-27.604
				C378.966,332.889,383.824,330.728,388.572,329.663z"/>
			<path id="XMLID_240_" style="fill:#F2C39C;" d="M389.129,325.729c0,0,0.269,2.724-1.14,5.324c-1.408,2.6-2.654,6.849,4.694,5.762
				c7.348-1.087,4.821-6.573,7.195-14.043C402.252,315.303,389.129,325.729,389.129,325.729z"/>
			<path id="XMLID_239_" style="fill:#DD9868;" d="M388.809,328.95c0,0,1.952,0.506,6.501-0.947
				c4.041-1.291,4.569-5.231,4.569-5.231l-1.688-2.045l-9.074,6.733L388.809,328.95z"/>
			<path id="XMLID_238_" style="fill:#F2C39C;" d="M382.022,302.833l-1.058,8.356c0,0-3.402,8.08,0.426,13.132
				c3.828,5.051,13.083,3.487,16.864,0.726c3.781-2.761,6.159-21.96,6.159-21.96L382.022,302.833z"/>
			<path id="XMLID_237_" style="fill:#2E1439;" d="M380.036,301.22c0,0,0.116,1.726,4.979,3.146
				c4.863,1.421,12.61,1.254,12.61,1.254s-1.661,3.53-1.729,6.142c-0.068,2.612,1.269,3.512,1.269,3.512s1.605-1.895,2.963-0.781
				c1.358,1.115,1.256,5.033-2.738,5.264l2.489,3.015c0,0,10.535-14.813,4.535-19.686c0,0,2.068-3.986-4.616-6.801
				C393.115,293.47,379.025,297.031,380.036,301.22z"/>
			<g id="XMLID_233_">
				<path id="XMLID_234_" d="M384.936,317.354c-0.043-0.016-1.047-0.41-1.135-1.305c-0.021-0.218,0.031-0.547,0.403-0.876
					c0.359-0.318,1.025-0.598,1.222-0.552l-0.108,0.483l0.054-0.241l0.01,0.246c-0.196,0.028-1.135,0.411-1.088,0.892
					c0.058,0.588,0.813,0.888,0.82,0.891L384.936,317.354z"/>
			</g>
			<path id="XMLID_230_" style="fill:#2E1439;" d="M382.777,307.211c0,0,0.926-0.797,1.933-0.489
				c1.008,0.308,1.046,1.526,1.046,1.526L382.777,307.211z"/>
			<path id="XMLID_229_" style="fill:#2E1439;" d="M393.823,309.266c0,0-0.552-1.09-1.601-1.189c-1.049-0.1-1.549,1.011-1.549,1.011
				L393.823,309.266z"/>
			<path id="XMLID_228_" style="fill:#DD9868;" d="M395.685,316.86c0.079,0.805-0.509,1.521-1.313,1.6
				c-0.804,0.079-1.521-0.509-1.6-1.313c-0.079-0.805,0.509-1.521,1.313-1.6C394.889,315.468,395.605,316.056,395.685,316.86z"/>
			<path id="XMLID_231_" style="fill:#DD9868;" d="M382.837,314.695c-0.154,0.794-0.768,1.342-1.371,1.225
				c-0.603-0.117-0.967-0.855-0.813-1.649c0.154-0.794,0.768-1.342,1.371-1.225C382.627,313.163,382.991,313.902,382.837,314.695z"
				/>
			<g id="XMLID_251_">
				<path id="XMLID_266_" style="fill:#F3D7BE;" d="M349.761,340.178c-2.71-0.742-1.502-1.532-2.164-3.268
					c-0.733-1.909-0.556-4.744-1.844-7.746c-2.207-5.128,6.545,0.133,8.397,1.288c0.218,0.133,0.337,0.213,0.337,0.213
					s0,0.333,0.08,0.852c0.058,0.4,0.164,0.915,0.355,1.47c0,0,0,0,0,0.004c0.195,0.577,0.475,1.199,0.884,1.798
					C357.125,336.739,353.006,341.066,349.761,340.178z"/>
				<path id="XMLID_265_" style="fill:#E0A77C;" d="M354.922,332.983c0,0,0,0,0,0.005c0,0,0,0,0,0.004
					c0,0.062-0.071,0.679-2.025,0.959c-2.074,0.297-2.482,0-2.482,0s-0.395,2.22-1.159,2.518c-0.409,0.155-0.884,0.275-1.301,0.28
					c-0.733-1.909-0.915-4.582-2.202-7.584c-2.207-5.128,6.545,0.133,8.397,1.288c0.16,0.369,0.297,0.728,0.417,1.066
					C354.767,332.095,354.9,332.605,354.922,332.983z"/>
				<path id="XMLID_264_" style="fill:#F3D7BE;" d="M357.448,309.124l1.808,7.929c0,0,1.531,8.23-1.669,13.447
					s-10.32,0.103-14.215-2.192c-3.895-2.295-4.329-17.159-4.329-17.159L357.448,309.124z"/>
				<path id="XMLID_263_" style="fill:#2E1439;" d="M349.072,306.987c0,0,0.877,2.83,2.272,3.945
					c1.395,1.116,4.201,1.272,5.527,2.383c2.249,1.885,2.957,7.099,2.661,10.528c-0.296,3.429-2.975,8.181-4.657,8.77
					c0,0,0.17,2.55,0.866,3.458c0.696,0.908,5.047,2.819,7.997,2.4c2.95-0.418,5.779-4.224,5.5-7.054
					c-0.279-2.83-4.503-5.022-4.503-5.022s1.395-0.478,1.116-2.311c-0.279-1.833-2.949-3.138-2.949-3.138s-2.909-6.466-2.869-8.937
					c0,0-1.915-13.444-14.706-10.123C338.637,303.622,349.072,306.987,349.072,306.987z"/>
				<g id="XMLID_259_">
					<path id="XMLID_260_" d="M355.323,324.111l-0.145-0.473c0.007-0.002,0.675-0.216,0.76-0.715
						c0.067-0.398-0.719-0.784-0.885-0.822l0.04-0.178l-0.048-0.31c0.185-0.031,0.757,0.252,1.069,0.569
						c0.318,0.322,0.345,0.626,0.311,0.824C356.29,323.807,355.363,324.099,355.323,324.111z"/>
				</g>
				<g id="XMLID_257_">
					<path id="XMLID_258_" d="M353.574,327.067c-1.03-0.174-2.04-0.924-2.089-0.961l0.297-0.396
						c0.013,0.009,1.277,0.948,2.275,0.896c0.965-0.05,1.393-0.682,1.397-0.688l0.413,0.272c-0.023,0.034-0.572,0.847-1.784,0.91
						C353.915,327.109,353.744,327.096,353.574,327.067z"/>
				</g>
				<path id="XMLID_256_" style="fill:#2E1439;" d="M357.279,314.63c0,0-0.813-0.714-1.708-0.45c-0.895,0.264-0.94,1.342-0.94,1.342
					L357.279,314.63z"/>
				<path id="XMLID_255_" style="fill:#2E1439;" d="M347.478,316.353c0,0,0.498-0.96,1.428-1.039
					c0.93-0.079,1.363,0.909,1.363,0.909L347.478,316.353z"/>
				<path id="XMLID_254_" style="fill:#2E1439;" d="M350.945,306.428c0,0,1.065,4.979-0.408,6.892c-1.474,1.913-4.993,3.654-5.799,5
					c-2.641,4.41,5.505,13.814,4.989,15.966c-0.516,2.152-2.13,2.624-2.13,2.624s1.435,2.876-0.896,5.148
					c-2.332,2.272-7.831,4.244-9.923,0c0,0-7.054,1.853-8.788-2.511c-1.734-4.364-0.418-7.233,0.717-9.864
					c1.136-2.63,3.348-2.808,3.647-9.743c0.299-6.935,1.793-11.009,5.051-14.767C341.38,300.589,350.646,299.835,350.945,306.428z"
					/>
				<path id="XMLID_253_" style="fill:#E0A77C;" d="M348.096,323.489c0,0.851-0.604,1.542-1.348,1.542
					c-0.745,0-1.348-0.69-1.348-1.542c0-0.851,0.604-1.542,1.348-1.542C347.492,321.947,348.096,322.637,348.096,323.489z"/>
				<ellipse id="XMLID_252_" style="fill:#E0A77C;" cx="358.907" cy="321.048" rx="0.687" ry="1.075"/>
				<path id="XMLID_235_" style="fill:#2E1439;" d="M351.366,320.549c0,0-0.875-0.354-1.625-0.333
					c-0.75,0.021-1.952,0.71-1.952,0.71s-0.518-0.126-0.731-0.814l0.731,0.146C347.788,320.257,350.012,318.695,351.366,320.549z"/>
				<path id="XMLID_236_" style="fill:#2E1439;" d="M355.036,319.813c0,0,0.487-0.743,1.082-1.109
					c0.595-0.366,1.91-0.404,1.91-0.404s0.334-0.371,0.123-1.054l-0.489,0.495C357.661,317.741,355.073,317.571,355.036,319.813z"/>
			</g>
			<path id="XMLID_250_" style="fill:#F3D7BE;" d="M363.266,338.865c-2.086,0-3.8,1.622-3.944,3.704
				c-0.001,0.013-0.002,0.026-0.003,0.039c-1.411,20.412-9.312,44.022-11.852,47.69c-2.54,3.669-4.384,6.459-4.384,6.459
				c-1.599,1.066-3.167,2.916-2.508,3.073c0.658,0.157,1.818-0.909,1.818-0.909s-0.094,0.376-1.348,1.693
				c-1.254,1.317-1.662,3.919-1.254,3.919c0.341,0,1.51-1.879,1.887-2.497c-0.539,0.966-1.771,4.043-1.134,4.159
				c0.69,0.125,2.258-3.01,2.258-3.01c-2.258,4.327-0.627,4.891,0,3.323c0.627-1.568,2.446-4.013,2.446-4.013
				s-1.63,3.574-0.564,3.637c1.066,0.063,1.568-2.696,4.641-6.02c3.073-3.323,4.515-8.842,4.515-8.842
				c6.227-6.883,14.304-25.902,15.414-48.224c0.113-2.275-1.718-4.181-3.995-4.181H363.266z"/>
			<path id="XMLID_273_" style="fill:#F5D132;" d="M351.839,454.492c0,0,1.536,3.1,1.408,9.166l-9.833,0.404h-1.55h-13.816
				c0,0-0.202-2.089,3.639-4.111c3.841-2.022,12.04-5.923,12.04-5.923L351.839,454.492z"/>
			<path id="XMLID_274_" style="fill:#F2C39C;" d="M320.479,337.064c2.153,1.892,1.222,5.483-1.561,6.165
				c-0.466,0.114-0.942,0.195-1.407,0.219c-2.396,0.125-5.091,0.188-5.306-0.5c-0.215-0.688,2.035-1.313,4.223-1.813
				s-0.32-3.688-4.223-3.563c-3.902,0.125-2.715,2.446-5.09,2.723s-0.438-2.473-0.438-2.473s-0.938,1.625-2.75,1.625
				s0.438-2.25,0.438-2.25s-1.313,1.375-2.125,1.063s1.93-5.125,9.965-4.125C316.331,334.65,318.916,335.691,320.479,337.064z"/>
			<path id="XMLID_286_" style="fill:#AF80B5;" d="M404.297,366.381c-7.11,12.09-20.33,25.85-20.33,25.85l-5.73-4.04
				c0.01-0.02,0.03-0.05,0.04-0.07c5.42-10.08,15.58-23.05,15.58-23.05s1.32-19.94,5.17-28.24c0.33-0.72,0.67-1.34,1.04-1.87h0.01
				c0.01-0.01,0.02-0.03,0.03-0.04c0.07-0.1,0.14-0.19,0.21-0.28c0.05-0.07,0.11-0.13,0.17-0.2c0.77-0.83,2.02-1.49,3.41-1.56
				c2.86-0.18,6.3,2.1,7.32,10.26C411.977,349.161,411.397,354.301,404.297,366.381z"/>
			<path id="XMLID_275_" style="fill:#C59ACC;" d="M399.026,336.83c0.079-0.124-3.148,22.604-3.638,27.308
				c-0.364,3.492-16.687,24.311-16.687,24.311l-0.424-0.332c5.424-10.074,15.581-23.042,15.581-23.042
				S395.175,345.127,399.026,336.83z"/>
			<path id="XMLID_271_" style="fill:#F2C39C;" d="M385.808,389.031c0,0-0.904,3.709-3.682,5.837
				c-2.778,2.128-2.874,2.387-2.874,2.387s1.481,3.159,0.879,3.842c-0.602,0.683-1.775-0.298-1.775-0.298s0.207,0.945-0.708,1.289
				c-0.914,0.345-1.359-0.113-1.359-0.113s0.087,1.107-1.018,1.346c-1.105,0.239-1.954-0.578-1.954-0.578s-2.868-3.161-2.982-5.809
				c-0.114-2.649,8.571-8.746,8.571-8.746L385.808,389.031z"/>
			<polygon id="XMLID_279_" style="fill:#16393E;" points="446.859,357.761 437.427,397.083 446.436,398.261 455.444,357.761 			"/>
			<path id="XMLID_280_" style="fill:#16393E;" d="M289.177,397.261c0,0-12,3.75-14,14s-3,39.737-3,39.737h8.5
				c0,0-3.496-34.779,3.5-41.487c6.996-6.708,13.25-7.519,13.25-7.519L289.177,397.261z"/>
			<path id="XMLID_281_" style="fill:#16393E;" d="M414.241,410.325c0,0-12,3.991-14,14.898c-2,10.908-3,42.288-3,42.288h8.5
				c0,0-3.496-37.011,3.5-44.15c6.996-7.139,13.25-8.001,13.25-8.001L414.241,410.325z"/>
			<path id="XMLID_282_" style="fill:#16393E;" d="M443.028,399.496c0,0,9.348,3.991,10.906,14.898
				c1.558,10.908,2.337,42.288,2.337,42.288h-6.621c0,0,2.723-37.011-2.726-44.15c-5.45-7.139-10.321-8.001-10.321-8.001
				L443.028,399.496z"/>
			<path id="XMLID_298_" style="fill:#2E1439;" d="M389.411,313.004c0,0,1.682-0.626,3.029-0.438s1.44,0.782,1.44,0.782
				s0.125-1.72-1.906-1.718C389.317,311.631,389.411,313.004,389.411,313.004z"/>
			<path id="XMLID_297_" style="fill:#2E1439;" d="M385.696,311.767c0,0-1.121-1.346-2.352-1.84
				c-1.231-0.494-1.599-0.037-1.599-0.037s0.729-1.517,2.448-0.53C386.441,310.651,385.696,311.767,385.696,311.767z"/>
			<path id="XMLID_232_" style="fill:#C67138;" d="M384.267,319.085c0,0,1.047,0.598,2.503,0.821c1.457,0.222,2.64,0,2.64,0
				s-0.735,2.69-2.992,3.038C384.161,323.291,384.267,319.085,384.267,319.085z"/>
		</g>
		<path id="XMLID_290_" style="fill:#DB879E;" d="M315.65,315.418c0,0,1.52-3.25,3.343-1.258c2.006,2.193-5.098,6.2-5.098,6.2
			s-3.343-7.097-1.17-7.902C314.897,311.653,315.65,315.418,315.65,315.418z"/>
		<path id="XMLID_289_" style="fill:#DB879E;" d="M366.505,286.307c0,0,1.52-3.25,3.343-1.257c2.006,2.192-5.099,6.2-5.099,6.2
			s-3.343-7.097-1.17-7.902C365.753,282.542,366.505,286.307,366.505,286.307z"/>
		<path id="XMLID_288_" style="fill:#DB879E;" d="M446.905,285.327c0,0,1.52-3.25,3.343-1.258c2.006,2.193-5.098,6.2-5.098,6.2
			s-3.343-7.097-1.17-7.902C446.153,281.562,446.905,285.327,446.905,285.327z"/>
		<path id="XMLID_291_" style="fill:#FFFFFF;" d="M446.547,319.005c0,0,1.253-3.988,3.569-1.908
			c2.547,2.289-4.852,7.899-4.852,7.899s-4.721-7.825-2.399-9.052C445.186,314.719,446.547,319.005,446.547,319.005z"/>
		<path id="XMLID_292_" style="fill:#FFFFFF;" d="M427.604,377.415c0,0,1.253-3.988,3.568-1.908
			c2.548,2.289-4.852,7.899-4.852,7.899s-4.72-7.825-2.399-9.051C426.243,373.129,427.604,377.415,427.604,377.415z"/>
	</g>
</g>
</svg>
