<?xml version="1.0" encoding="iso-8859-1"?>
<!-- Uploaded to: SVG Repo, www.svgrepo.com, Generator: SVG Repo Mixer Tools -->
<svg height="800px" width="800px" version="1.1" id="Layer_1" xmlns="http://www.w3.org/2000/svg" xmlns:xlink="http://www.w3.org/1999/xlink" 
	 viewBox="0 0 512 512" xml:space="preserve">
<circle style="fill:#FFA9CA;" cx="256" cy="256" r="256"/>
<path style="fill:#FF80AA;" d="M245.751,178.969l-57.558,59.93v264.006C209.792,508.823,232.524,512,256,512
	c127.376,0,233.007-93.034,252.692-214.852L299.439,84.471l-30.953,23.326l-20.065-23.488l-12.948,18.677l0,0l-14.041,27.707
	l115.269,118.508l-22.261-1.545L245.751,178.969z"/>
<path style="fill:#E8BC95;" d="M174.866,412.913c38.848,3.962,75.99-5.306,106.967-24.143
	c-2.924-23.799-26.784-24.664-51.326-30.613c-35.376-8.575-19.366-51.14-19.366-51.14l-50.429-5.144c0,0,7.089,44.92-29.291,46.177
	c-25.235,0.871-48.773-3.089-56.441,19.621C101.512,392.375,136.02,408.952,174.866,412.913z"/>
<path style="fill:#D8A987;" d="M281.833,388.77c-2.924-23.797-26.784-24.664-51.326-30.613c-35.376-8.575-19.366-51.14-19.366-51.14
	l-25.209-2.57l-10.516,108.511C214.063,416.777,251.002,407.518,281.833,388.77z"/>
<path style="fill:#F4E3C3;" d="M261.132,240.53c-3.844,37.688-39.833,87.871-77.519,84.027s-62.804-60.259-58.959-97.947
	s37.512-65.124,75.198-61.28C237.54,169.174,264.976,202.842,261.132,240.53z"/>
<path style="fill:#FED8B2;" d="M199.852,165.329c-0.147-0.016-0.29-0.019-0.436-0.033l-15.438,159.28
	c37.554,3.482,73.321-46.482,77.152-84.047C264.976,202.842,237.54,169.174,199.852,165.329z"/>
<path style="fill:#E29734;" d="M119.93,239.257c1.052,10.657,2.05,24.717,15.17,40.058c0,0-1.864-22.714,2.841-35.637
	c4.894-5.861,9.59-16.929,11.779-37.498c0,0,46.547,45.153,97.001,55.684c-0.281,12.984-4.782,28.348-4.782,28.348
	c9.314-7.23,15.57-18.348,19.168-26.352c1.764,0.114,3.527,0.178,5.289,0.186c0,0,19.104-96.253-66.05-103.545
	C146.348,155.881,115.531,194.66,119.93,239.257z"/>
<path style="fill:#D88A00;" d="M200.345,160.504c-0.155-0.014-0.305-0.016-0.46-0.029l-7.577,78.181
	c15.9,9.84,34.856,19.127,54.413,23.209c-0.281,12.984-4.782,28.348-4.782,28.348c9.314-7.23,15.57-18.348,19.168-26.352
	c1.764,0.114,3.527,0.178,5.289,0.186C266.395,264.049,285.498,167.796,200.345,160.504z"/>
<path style="fill:#31BAFD;" d="M230.505,358.157c-14.231-3.45-20.142-12.398-22.13-21.866c-7.856,1.126-16.596,1.322-25.734,0.391
	c-9.142-0.933-17.665-2.891-25.133-5.58c-3.858,8.871-11.455,16.443-26.09,16.949c-25.235,0.871-48.773-3.089-56.441,19.621
	L56.517,416.43C103.441,474.702,175.359,512,256,512c6.039,0,12.026-0.226,17.961-0.636l0.886-22.988l6.985-99.606
	C278.909,364.972,255.048,364.106,230.505,358.157z"/>
<path style="fill:#2B9ED8;" d="M230.505,358.157c-14.231-3.45-20.142-12.398-22.13-21.866c-7.808,1.119-16.493,1.317-25.571,0.405
	l-15.458,159.506C194.972,506.406,224.828,512,256,512c6.039,0,12.026-0.226,17.961-0.636l0.886-22.988l6.985-99.606
	C278.909,364.972,255.048,364.106,230.505,358.157z"/>
<path style="fill:#804000;" d="M425.953,303.432c-6.227-61.05-41.055-105.582-41.055-105.582l-64.065,11.692l24.405,128.908
	l63.162-11.528C419.5,324.898,427.098,314.656,425.953,303.432z"/>
<path style="fill:#935635;" d="M259.065,220.817c0,0-16.851,53.963-1.11,113.278c2.894,10.904,13.621,17.801,24.719,15.775
	l62.564-11.419l-24.405-128.908L259.065,220.817z"/>
<path style="fill:#E8BC95;" d="M387.12,349.86c-27.87,1.238-25.167-33.509-25.167-33.509l-38.217,6.975
	c0,0,14.803,31.553-11.707,40.239c-22.938,7.516-45.542,8.93-34.506,43.392c25.498,8.144,53.305,10.331,81.475,5.191
	c28.753-5.248,54.462-17.501,75.693-34.671C432.571,342.212,411.06,348.796,387.12,349.86z"/>
<path style="fill:#CC9E7D;" d="M387.12,349.86c-27.87,1.238-25.167-33.509-25.167-33.509l-20.201,3.687l17.432,92.074
	c28.679-5.267,54.322-17.501,75.507-34.635C432.571,342.212,411.06,348.796,387.12,349.86z"/>
<path style="fill:#F4E3C3;" d="M393.102,226.661c6.654,36.461-13.491,93.42-49.954,100.074s-75.431-39.515-82.085-75.976
	c-6.654-36.461,17.508-71.415,53.97-78.069C351.494,166.036,386.446,190.2,393.102,226.661z"/>
<path style="fill:#FED8B2;" d="M393.102,226.661c-6.654-36.461-41.606-60.625-78.069-53.97c-0.381,0.069-0.753,0.16-1.131,0.236
	l29.122,153.826c0.041-0.007,0.083-0.01,0.124-0.017C379.609,320.081,399.757,263.123,393.102,226.661z"/>
<path style="fill:#B97850;" d="M401.836,249.765c-3.456-98.807-84.713-87.621-84.713-87.621l-7.263,1.326
	c0,0-79.97,18.241-48.299,111.897L401.836,249.765z"/>
<path style="fill:#935635;" d="M317.123,162.144l-5.086,0.927l18.865,99.64l70.935-12.947
	C398.379,150.957,317.123,162.144,317.123,162.144z"/>
<path style="fill:#FC6F58;" d="M450.167,422.831c-7.268-25.009-17.37-57.853-18.318-60.326
	c-18.213,13.99-45.128,25.531-76.216,31.204c-30.451,5.558-59.151,4.437-80.97-1.865c0.041,2.589-1.853,68.367-2.857,119.656
	C343.054,507.159,406.428,473.69,450.167,422.831z"/>
<path style="fill:#F1543F;" d="M450.167,422.831c-7.268-25.009-17.37-57.853-18.318-60.326
	c-18.199,13.981-45.092,25.514-76.152,31.192l17.067,90.15C402.38,468.642,428.653,447.847,450.167,422.831z"/>
<path style="fill:#C1321F;" d="M205.145,102.379c0-14.043,11.385-25.428,25.428-25.428c14.043,0,25.428,11.385,25.428,25.428
	c0-14.043,11.385-25.428,25.428-25.428c14.043,0,25.428,11.383,25.428,25.428c0,24.314-50.855,53.398-50.855,53.398
	S205.145,128.064,205.145,102.379z"/>
<path style="fill:#A82116;" d="M256,102.379c0-14.043,11.385-25.428,25.428-25.428c14.043,0,25.428,11.383,25.428,25.428
	c0,24.314-50.855,53.398-50.855,53.398V102.379z"/>
</svg>