<?xml version="1.0" encoding="UTF-8" standalone="no"?>
<!-- Created with Inkscape (http://www.inkscape.org/) -->

<svg
   version="1.1"
   id="svg2"
   width="666.66669"
   height="666.66669"
   viewBox="0 0 666.66669 666.66669"
   sodipodi:docname="6730258.eps"
   xmlns:inkscape="http://www.inkscape.org/namespaces/inkscape"
   xmlns:sodipodi="http://sodipodi.sourceforge.net/DTD/sodipodi-0.dtd"
   xmlns="http://www.w3.org/2000/svg"
   xmlns:svg="http://www.w3.org/2000/svg">
  <defs
     id="defs6">
    <clipPath
       clipPathUnits="userSpaceOnUse"
       id="clipPath20">
      <path
         d="m 1723.47,2569.15 c 16.41,103.97 72.29,195.34 157.38,257.26 67.73,49.36 147.77,75.45 231.42,75.45 125.86,0 245.11,-60.65 318.98,-162.22 l 12.46,-17.11 -537,-601.52 -112.63,154.97 c -61.92,85.08 -87,189.2 -70.61,293.17 z m 216.84,-494.41 42.16,47.24 585.92,656.18 c 77.54,86.62 188.66,136.31 304.82,136.31 100.37,0 197.03,-36.98 272.16,-104.11 167.92,-150.23 182.43,-409.06 32.35,-576.98 l -745.77,-835.15 z m -191.41,168.38 132.98,-182.98 525.24,-722.78 c 4.95,-6.82 12.74,-11.05 21.19,-11.47 0.46,-0.02 0.94,-0.04 1.4,-0.04 7.94,0 15.5,3.38 20.84,9.34 l 768.83,860.96 c 170.59,190.88 154.1,485.09 -36.77,655.85 -85.39,76.31 -195.27,118.33 -309.4,118.33 -132.03,0 -258.32,-56.46 -346.46,-154.92 l -44.96,-50.27 -5.36,7.37 c -84.35,115.97 -220.49,185.21 -364.16,185.21 -95.56,0 -186.95,-29.79 -264.31,-86.16 -97.12,-70.69 -160.93,-174.99 -179.65,-293.7 -18.73,-118.73 9.88,-237.6 80.59,-334.74 z"
         id="path18" />
    </clipPath>
    <linearGradient
       x1="0"
       y1="0"
       x2="1"
       y2="0"
       gradientUnits="userSpaceOnUse"
       gradientTransform="matrix(-1674.56,-1e-7,1e-7,-1674.56,3337.28,2148.09)"
       spreadMethod="pad"
       id="linearGradient26">
      <stop
         style="stop-opacity:1;stop-color:#777fc8"
         offset="0"
         id="stop22" />
      <stop
         style="stop-opacity:1;stop-color:#ee4693"
         offset="1"
         id="stop24" />
    </linearGradient>
    <clipPath
       clipPathUnits="userSpaceOnUse"
       id="clipPath36">
      <path
         d="m 2392.59,3245.26 c 0,-105.73 -86.03,-191.73 -191.75,-191.73 -105.72,0 -191.73,86 -191.73,191.73 0,105.73 86.01,191.73 191.73,191.73 105.72,0 191.75,-86 191.75,-191.73 z m 55.86,0 c 0,136.53 -111.08,247.6 -247.61,247.6 -136.51,0 -247.59,-111.07 -247.59,-247.6 0,-136.53 111.08,-247.6 247.59,-247.6 136.53,0 247.61,111.07 247.61,247.6 z"
         id="path34" />
    </clipPath>
    <linearGradient
       x1="0"
       y1="0"
       x2="1"
       y2="0"
       gradientUnits="userSpaceOnUse"
       gradientTransform="matrix(-495.195,0,0,-495.195,2448.45,3245.26)"
       spreadMethod="pad"
       id="linearGradient42">
      <stop
         style="stop-opacity:1;stop-color:#777fc8"
         offset="0"
         id="stop38" />
      <stop
         style="stop-opacity:1;stop-color:#ee4693"
         offset="1"
         id="stop40" />
    </linearGradient>
    <clipPath
       clipPathUnits="userSpaceOnUse"
       id="clipPath52">
      <path
         d="m 3138.6,3345.27 c 0,-150.57 -122.48,-273.07 -273.04,-273.07 -150.57,0 -273.05,122.5 -273.05,273.07 0,150.56 122.48,273.05 273.05,273.05 150.56,0 273.04,-122.49 273.04,-273.05 z m 55.87,0 c 0,181.36 -147.55,328.91 -328.91,328.91 -181.37,0 -328.92,-147.55 -328.92,-328.91 0,-181.37 147.55,-328.93 328.92,-328.93 181.36,0 328.91,147.56 328.91,328.93 z"
         id="path50" />
    </clipPath>
    <linearGradient
       x1="0"
       y1="0"
       x2="1"
       y2="0"
       gradientUnits="userSpaceOnUse"
       gradientTransform="matrix(-657.832,0,0,-657.832,3194.47,3345.26)"
       spreadMethod="pad"
       id="linearGradient58">
      <stop
         style="stop-opacity:1;stop-color:#777fc8"
         offset="0"
         id="stop54" />
      <stop
         style="stop-opacity:1;stop-color:#ee4693"
         offset="1"
         id="stop56" />
    </linearGradient>
  </defs>
  <sodipodi:namedview
     id="namedview4"
     pagecolor="#ffffff"
     bordercolor="#000000"
     borderopacity="0.25"
     inkscape:showpageshadow="2"
     inkscape:pageopacity="0.0"
     inkscape:pagecheckerboard="0"
     inkscape:deskcolor="#d1d1d1" />
  <g
     id="g8"
     inkscape:groupmode="layer"
     inkscape:label="ink_ext_XXXXXX"
     transform="matrix(1.3333333,0,0,-1.3333333,0,666.66667)">
    <g
       id="g10"
       transform="scale(0.1)">
      <path
         d="M 5000,0.0195313 H 0 V 5000.01 H 5000 V 0.0195313"
         style="fill:#251f3d;fill-opacity:1;fill-rule:nonzero;stroke:none"
         id="path12" />
      <g
         id="g14">
        <g
           id="g16"
           clip-path="url(#clipPath20)">
          <path
             d="m 1723.47,2569.15 c 16.41,103.97 72.29,195.34 157.38,257.26 67.73,49.36 147.77,75.45 231.42,75.45 125.86,0 245.11,-60.65 318.98,-162.22 l 12.46,-17.11 -537,-601.52 -112.63,154.97 c -61.92,85.08 -87,189.2 -70.61,293.17 z m 216.84,-494.41 42.16,47.24 585.92,656.18 c 77.54,86.62 188.66,136.31 304.82,136.31 100.37,0 197.03,-36.98 272.16,-104.11 167.92,-150.23 182.43,-409.06 32.35,-576.98 l -745.77,-835.15 z m -191.41,168.38 132.98,-182.98 525.24,-722.78 c 4.95,-6.82 12.74,-11.05 21.19,-11.47 0.46,-0.02 0.94,-0.04 1.4,-0.04 7.94,0 15.5,3.38 20.84,9.34 l 768.83,860.96 c 170.59,190.88 154.1,485.09 -36.77,655.85 -85.39,76.31 -195.27,118.33 -309.4,118.33 -132.03,0 -258.32,-56.46 -346.46,-154.92 l -44.96,-50.27 -5.36,7.37 c -84.35,115.97 -220.49,185.21 -364.16,185.21 -95.56,0 -186.95,-29.79 -264.31,-86.16 -97.12,-70.69 -160.93,-174.99 -179.65,-293.7 -18.73,-118.73 9.88,-237.6 80.59,-334.74"
             style="fill:url(#linearGradient26);fill-opacity:1;fill-rule:nonzero;stroke:none"
             id="path28" />
        </g>
      </g>
      <g
         id="g30">
        <g
           id="g32"
           clip-path="url(#clipPath36)">
          <path
             d="m 2392.59,3245.26 c 0,-105.73 -86.03,-191.73 -191.75,-191.73 -105.72,0 -191.73,86 -191.73,191.73 0,105.73 86.01,191.73 191.73,191.73 105.72,0 191.75,-86 191.75,-191.73 z m 55.86,0 c 0,136.53 -111.08,247.6 -247.61,247.6 -136.51,0 -247.59,-111.07 -247.59,-247.6 0,-136.53 111.08,-247.6 247.59,-247.6 136.53,0 247.61,111.07 247.61,247.6"
             style="fill:url(#linearGradient42);fill-opacity:1;fill-rule:nonzero;stroke:none"
             id="path44" />
        </g>
      </g>
      <g
         id="g46">
        <g
           id="g48"
           clip-path="url(#clipPath52)">
          <path
             d="m 3138.6,3345.27 c 0,-150.57 -122.48,-273.07 -273.04,-273.07 -150.57,0 -273.05,122.5 -273.05,273.07 0,150.56 122.48,273.05 273.05,273.05 150.56,0 273.04,-122.49 273.04,-273.05 z m 55.87,0 c 0,181.36 -147.55,328.91 -328.91,328.91 -181.37,0 -328.92,-147.55 -328.92,-328.91 0,-181.37 147.55,-328.93 328.92,-328.93 181.36,0 328.91,147.56 328.91,328.93"
             style="fill:url(#linearGradient58);fill-opacity:1;fill-rule:nonzero;stroke:none"
             id="path60" />
        </g>
      </g>
    </g>
  </g>
</svg>
